<?xml version="1.0" encoding="UTF-8"?>
<svg version="1.1" xmlns="http://www.w3.org/2000/svg" width="1600" height="1049">
<path d="M0 0 C528 0 1056 0 1600 0 C1600 346.17 1600 692.34 1600 1049 C1072 1049 544 1049 0 1049 C0 702.83 0 356.66 0 0 Z " fill="#F6F6F6" transform="translate(0,0)"/>
<path d="M0 0 C18.34427943 16.72566654 16.54207428 54.80280184 17.59765625 77.44140625 C18.8301116 105.07461817 19.14349922 132.73375202 19.56176758 160.38842773 C19.86270239 180.266094 20.26253217 200.13342296 21 220 C21.66 220.33 22.32 220.66 23 221 C23.06058594 220.41089844 23.12117187 219.82179688 23.18359375 219.21484375 C24.3531554 216.04191812 26.18871789 215.27411988 29.0625 213.5625 C30.05507813 212.964375 31.04765625 212.36625 32.0703125 211.75 C33.03710938 211.1725 34.00390625 210.595 35 210 C37.08670298 208.6226383 39.17056971 207.24179874 41.24609375 205.84765625 C43 205 43 205 47 205 C47 204.34 47 203.68 47 203 C47.99 202.67 48.98 202.34 50 202 C53.37930183 196.93104725 54.25522885 192.41005481 54.30078125 186.375 C54.30628998 185.73104279 54.31179871 185.08708557 54.31747437 184.4236145 C54.32928582 182.28219539 54.32274505 180.14142181 54.3125 178 C54.31134186 177.25876892 54.31018372 176.51753784 54.30899048 175.75384521 C54.26583581 161.51958905 53.56116247 147.32974693 52.6875 133.125 C52.59935532 131.59891113 52.59935532 131.59891113 52.50942993 130.04199219 C52.33779728 127.13355826 52.14689761 124.22707948 51.94921875 121.3203125 C51.89905609 120.45093048 51.84889343 119.58154846 51.79721069 118.68582153 C51.45630416 114.07574808 51.00451169 110.72033973 48 107 C45.67294487 105.66540702 43.50606726 104.55408784 41.0625 103.5 C35.04537996 100.8882075 31.44683049 98.34203976 28.77734375 92.17578125 C26.89771635 84.49670046 26.41968901 74.87092581 30.1875 67.75 C32.27698707 64.43335386 34.68359596 62.10038923 38 60 C40.76133953 59.71385083 43.08145612 59.61410117 45.8125 59.75 C46.50537109 59.76804688 47.19824219 59.78609375 47.91210938 59.8046875 C49.60867664 59.85148936 51.30452476 59.92322376 53 60 C53 59.34 53 58.68 53 58 C54.010625 57.5875 55.02125 57.175 56.0625 56.75 C58.76618146 55.61986115 60.82165367 54.45739852 63.3125 52.8125 C68.62946581 49.68698632 74.50419656 50.43491243 80.3125 51.75 C84.91436148 53.89040069 88.10687449 56.24754798 90 61 C90.60961239 64.35110627 91.14922796 67.69183709 91.59179688 71.06835938 C92.4204983 76.23926241 93.91691645 78.75615082 98 82 C102.97915437 84.77866154 108.47549067 86.16480094 114 87.4375 C118.82589234 88.57516283 122.72175165 90.25377183 127.06640625 92.59375 C133.4562394 95.65678586 140.29424831 97.73622536 147 100 C147 100.66 147 101.32 147 102 C148.65 102 150.3 102 152 102 C152 102.66 152 103.32 152 104 C153.47919922 104.12568359 153.47919922 104.12568359 154.98828125 104.25390625 C159.52522524 104.90367245 163.17441123 106.80849046 167.1875 108.9375 C167.88552734 109.29779297 168.58355469 109.65808594 169.30273438 110.02929688 C170.6315101 110.71580993 171.95831429 111.4061582 173.28271484 112.10107422 C175.1763434 113.09230828 177.08336066 114.05406172 179 115 C179 115.66 179 116.32 179 117 C179.74636719 117.24234375 180.49273438 117.4846875 181.26171875 117.734375 C186.23981052 120.03523339 188.77439514 124.09866796 191 129 C192.02398919 136.0748344 191.50429673 142.3083569 189 149 C188.34 149 187.68 149 187 149 C186.9175 149.53625 186.835 150.0725 186.75 150.625 C183.99582516 159.34655365 175.87981994 165.07999325 169.0625 170.625 C168.37220703 171.19734375 167.68191406 171.7696875 166.97070312 172.359375 C162.09366511 176.33496997 157.31090458 179.7863645 151 181 C151 181.66 151 182.32 151 183 C149.3712361 184.06061583 147.69566623 185.05000325 146 186 C144.32132425 187.07099747 142.6456777 188.14675368 140.97265625 189.2265625 C134.88840738 193.1084746 128.68151893 196.75740287 122.4375 200.375 C121.35919922 201.00277344 120.28089844 201.63054687 119.16992188 202.27734375 C111.32553089 206.83723456 111.32553089 206.83723456 109 208 C109.33 211.3 109.66 214.6 110 218 C110.66 218 111.32 218 112 218 C112.515625 219.093125 113.03125 220.18625 113.5625 221.3125 C115.8739597 225.98548711 118.70656914 230.25831412 121.609375 234.58203125 C123 237 123 237 123 240 C123.66 240 124.32 240 125 240 C126.48046875 242.01953125 126.48046875 242.01953125 128.1875 244.8125 C128.81269531 245.823125 129.43789063 246.83375 130.08203125 247.875 C131.03142578 249.421875 131.03142578 249.421875 132 251 C133.12117358 252.77325844 134.24609873 254.54415116 135.375 256.3125 C135.94863281 257.21484375 136.52226563 258.1171875 137.11328125 259.046875 C138.48004123 261.1861515 139.85195068 263.32145674 141.23046875 265.453125 C144.60524543 270.6749462 147.97002062 275.89074169 151.125 281.25 C153.63602233 285.49515378 156.42019819 289.4878049 159.28515625 293.5 C160.96143921 295.94378382 162.45774253 298.43348298 163.9375 301 C166.59866032 305.53461718 169.71142717 309.49903163 173.05078125 313.55078125 C175.45229893 316.56831949 177.53242246 319.73712195 179.625 322.97265625 C180.88467642 324.82996324 182.21360708 326.49866436 183.6875 328.1875 C188.04576491 333.48809246 189.3816748 337.51415697 189.1875 344.375 C189.16042969 345.62023437 189.13335938 346.86546875 189.10546875 348.1484375 C189.07066406 349.08945312 189.03585937 350.03046875 189 351 C188.34 351 187.68 351 187 351 C186.6596875 352.11375 186.6596875 352.11375 186.3125 353.25 C184.65131299 356.73058231 183.35576078 358.07222253 180 360 C175.56806922 360.80952241 172.11797384 360.54709358 168.0625 358.5625 C167.051875 357.716875 166.04125 356.87125 165 356 C164.21496094 355.35546875 163.42992187 354.7109375 162.62109375 354.046875 C157.09112994 349.33280749 152.37849483 344.496049 149 338 C149 337.34 149 336.68 149 336 C148.34 336 147.68 336 147 336 C146.69707031 335.3709375 146.39414062 334.741875 146.08203125 334.09375 C143.61725272 329.05801786 141.02686631 324.26187925 137.91796875 319.59375 C137 318 137 318 137 316 C136.34 316 135.68 316 135 316 C133.59765625 313.953125 133.59765625 313.953125 132.0625 311.25 C130.5737339 308.64561122 129.13635002 306.17760142 127.30859375 303.796875 C126 302 126 302 126 300 C125.01 299.67 124.02 299.34 123 299 C120.95703125 296.56640625 120.95703125 296.56640625 118.8125 293.5625 C118.09707031 292.57378906 117.38164063 291.58507812 116.64453125 290.56640625 C115 288 115 288 115 286 C114.34 286 113.68 286 113 286 C111.40718569 283.88327324 109.9135971 281.75844643 108.4375 279.5625 C101.55873034 269.37005302 101.55873034 269.37005302 92 262 C91.98786972 262.90460464 91.98786972 262.90460464 91.97549438 263.82748413 C91.4978651 298.91089236 90.70779829 333.95266605 89 369 C88.93652374 370.30753235 88.93652374 370.30753235 88.87176514 371.64147949 C88.6390615 376.37908692 88.39187368 381.11553928 88.11959839 385.8510437 C88.00391012 387.86928591 87.89454447 389.88788746 87.78540039 391.90649414 C87.71184326 393.08074951 87.63828613 394.25500488 87.5625 395.46484375 C87.50191406 396.471521 87.44132813 397.47819824 87.37890625 398.51538086 C87 401 87 401 85 404 C84.71125 404.928125 84.4225 405.85625 84.125 406.8125 C82.83596339 410.46477038 81.49874813 413.02851574 79 416 C74.91355982 417.92756612 72.83169476 418.20427591 68.4375 417.125 C63.25606359 414.49927209 60.02092984 409.58926929 57.93617439 404.30193901 C56.91159339 400.68818497 56.75384698 397.69175906 56.75949097 393.93850708 C56.75778212 393.25142729 56.75607327 392.56434749 56.75431263 391.8564471 C56.75103314 389.56711323 56.76199573 387.27807614 56.77294922 384.98876953 C56.77351367 383.34258532 56.77319612 381.6964006 56.77206421 380.05021667 C56.77149101 375.58992614 56.78324009 371.12974344 56.79721212 366.66947794 C56.80972486 362.00498916 56.81089041 357.34049784 56.81326294 352.67599487 C56.81947611 343.84697023 56.83588473 335.01799519 56.85596192 326.18899238 C56.87832598 316.13584712 56.88931563 306.08269948 56.89935279 296.02953553 C56.92025109 275.35299602 56.95542391 254.67650113 57 234 C56.23051025 234.31243652 55.46102051 234.62487305 54.66821289 234.94677734 C46.3899921 238.21443628 36.88968695 240.66517735 28 239 C25.15825247 237.25982876 23.99479684 235.77055117 22 233 C22 232.34 22 231.68 22 231 C21.34 231 20.68 231 20 231 C20.06641221 231.64091678 20.13282442 232.28183355 20.20124912 232.94217205 C20.92773543 240.36017925 21.27592249 247.75185996 21.49780273 255.20043945 C21.53792292 256.48029661 21.5780431 257.76015377 21.61937904 259.07879448 C21.72809307 262.58342602 21.83124911 266.08819872 21.93235326 269.59305739 C21.99676443 271.82401093 22.06224049 274.05493164 22.12777519 276.28585243 C22.83358565 300.49386484 23.29006944 324.70182754 23.59765625 348.91796875 C23.60790439 349.72463816 23.61815253 350.53130757 23.62871122 351.36242151 C23.7730809 362.80516362 23.90471515 374.24804486 24.03417206 385.69096375 C24.16709004 397.40500052 24.3038723 409.11898613 24.44918627 420.83287603 C24.5066094 425.48516004 24.55963162 430.13746502 24.60892308 434.78984201 C24.64008066 437.65065229 24.67490363 440.51140975 24.71067619 443.37216568 C24.73376505 445.30802854 24.752405 447.2439429 24.77087402 449.17985535 C24.84525798 454.85270225 25.06119402 460.4019481 25.77445126 466.03062153 C26.12379022 469.08087414 26.15668412 472.11655871 26.18945312 475.18457031 C26.20189308 476.16935867 26.20189308 476.16935867 26.21458435 477.17404175 C26.23179828 478.58002757 26.24701323 479.98603911 26.26036072 481.39206696 C26.28165548 483.62055835 26.30864739 485.84891987 26.33703613 488.07733154 C26.40633122 493.60450594 26.46626596 499.13177363 26.52606201 504.65905762 C26.57711096 509.34865952 26.63193737 514.03818708 26.69187927 518.72768402 C26.7183178 520.91733046 26.73920354 523.10698467 26.7598877 525.29669189 C26.77649552 526.642134 26.79336778 527.98757288 26.81054688 529.33300781 C26.82307495 530.50277161 26.83560303 531.6725354 26.84851074 532.87774658 C26.91469557 535.90093562 26.91469557 535.90093562 27.49900818 538.41905212 C28.18017388 541.92819757 28.17757909 545.40107636 28.20532227 548.9621582 C28.2152162 549.75572786 28.22511013 550.54929752 28.23530388 551.36691475 C28.26698868 554.01150667 28.29178891 556.65611478 28.31640625 559.30078125 C28.33716347 561.18343969 28.35825341 563.06609449 28.37965393 564.94874573 C28.43571664 570.01816282 28.48513949 575.08762347 28.53263092 580.15712738 C28.5624604 583.30831671 28.59384293 586.45948701 28.62567139 589.61065674 C28.90330602 617.26858601 29.10346586 644.92638978 29.12293625 672.5857811 C29.12498433 674.85761627 29.12873323 677.12944334 29.13284302 679.40127563 C29.13871252 682.96207491 29.13884686 686.52283056 29.13438225 690.08363152 C29.13289179 691.95513279 29.13572893 693.82663604 29.1388092 695.69813538 C29.10373201 708.60966926 28.21044813 721.27382775 26 734 C25.34 734 24.68 734 24 734 C23.8453125 735.5159375 23.8453125 735.5159375 23.6875 737.0625 C22.75680827 742.39282535 21.02251067 746.46623399 18 751 C17.34 751 16.68 751 16 751 C15.67 751.99 15.34 752.98 15 754 C13.14453125 755.31640625 13.14453125 755.31640625 10.8125 756.5625 C9.67748047 757.18318359 9.67748047 757.18318359 8.51953125 757.81640625 C-6.57435649 764.90702328 -27.12010691 760.6347953 -43 758 C-43.66 757.67 -44.32 757.34 -45 757 C-46.66201518 756.79578941 -48.33064926 756.64432336 -50.00048828 756.51928711 C-51.04141632 756.43927963 -52.08234436 756.35927216 -53.15481567 756.27684021 C-54.28192963 756.19450638 -55.40904358 756.11217255 -56.5703125 756.02734375 C-57.72167694 755.93997452 -58.87304138 755.85260529 -60.05929565 755.7625885 C-63.74757951 755.48362204 -67.43627015 755.21049956 -71.125 754.9375 C-73.62112266 754.74973284 -76.11721684 754.56158672 -78.61328125 754.37304688 C-84.74186349 753.91096195 -90.87079001 753.45367812 -97 753 C-97 752.34 -97 751.68 -97 751 C-98.2065625 751.185625 -98.2065625 751.185625 -99.4375 751.375 C-105.39963462 750.74740688 -109.7992698 747.40079658 -113.8046875 743.03125 C-130.3378279 721.64509824 -126.42216021 688.6739518 -126.26428223 663.17041016 C-126.24545131 659.5671066 -126.2411939 655.9638558 -126.23743439 652.36050987 C-126.21658183 634.10153756 -126.02428769 615.85064656 -125.546875 597.59765625 C-125.52769264 596.83546721 -125.50851028 596.07327816 -125.48874664 595.28799248 C-125.43265537 593.11641117 -125.3712178 590.94505479 -125.30761719 588.77368164 C-125.27255066 587.55652969 -125.23748413 586.33937775 -125.20135498 585.08534241 C-125.07257244 581.8180475 -124.78974275 578.57628278 -124.49261475 575.32020569 C-123.94190421 568.90820703 -123.83432791 562.53592738 -123.81054688 556.10302734 C-123.79810692 554.26179291 -123.79810692 554.26179291 -123.78541565 552.38336182 C-123.76813298 549.7414581 -123.75246711 547.09960656 -123.73963928 544.45768356 C-123.71921728 540.28072088 -123.69160241 536.10382372 -123.66296387 531.9269104 C-123.59816214 522.32186364 -123.542245 512.71676945 -123.48697662 503.11166382 C-123.43610071 494.273842 -123.38331887 485.43604475 -123.32245111 476.59828532 C-123.29411503 472.44416426 -123.27051844 468.29005136 -123.25052643 464.13588214 C-123.23403299 460.95823839 -123.21123298 457.78063859 -123.18945312 454.60302734 C-123.1831765 452.8748024 -123.1831765 452.8748024 -123.17677307 451.11166382 C-123.16842941 450.066073 -123.16008575 449.02048218 -123.15148926 447.94320679 C-123.14633553 447.03146887 -123.14118179 446.11973095 -123.13587189 445.18036461 C-123 443 -123 443 -122 441 C-121.88390972 438.72140089 -121.83293524 436.43940362 -121.81054688 434.15795898 C-121.80225357 433.45345612 -121.79396027 432.74895325 -121.78541565 432.02310181 C-121.76799052 430.48824264 -121.75283047 428.95335651 -121.73963928 427.41845512 C-121.71855084 424.97299853 -121.6915187 422.52767073 -121.66296387 420.08229065 C-121.60320797 414.86741146 -121.55130856 409.65246807 -121.5 404.4375 C-121.44034411 398.44117509 -121.37734393 392.4449091 -121.30812073 386.4486866 C-121.28204916 384.06903619 -121.26091498 381.6893785 -121.2401123 379.30967712 C-121.2234532 377.80076855 -121.20657683 376.29186236 -121.18945312 374.78295898 C-121.17692505 373.49437485 -121.16439697 372.20579071 -121.15148926 370.87815857 C-121.07699994 367.43481788 -120.87825587 364.00743507 -120.6518808 360.57095146 C-119.87045017 348.54714096 -119.7154981 336.52577981 -119.55102539 324.48022461 C-119.51505384 322.05003361 -119.47873303 319.61984776 -119.4420929 317.18966675 C-119.36422334 311.98334961 -119.28850599 306.77700596 -119.21461678 301.57063103 C-119.10704185 293.99985685 -118.99391303 286.42917261 -118.87926643 278.85850257 C-118.69232759 266.51288049 -118.50765914 254.16722584 -118.32543945 241.8215332 C-118.30913095 240.71675381 -118.30913095 240.71675381 -118.29249298 239.58965565 C-118.17175449 231.40540668 -118.05186838 223.22114577 -117.93328857 215.03686523 C-117.92267843 214.30457943 -117.91206829 213.57229362 -117.90113663 212.81781733 C-117.87974382 211.34112757 -117.85835139 209.86443779 -117.83695935 208.38774801 C-117.82110564 207.29342871 -117.82110564 207.29342871 -117.80493164 206.17700195 C-117.79437719 205.4483745 -117.78382274 204.71974704 -117.77294845 203.96903997 C-117.59496243 191.69177526 -117.41142571 179.41460041 -117.22363847 167.13748175 C-117.11894075 160.27976057 -117.0168546 153.42202179 -116.92167854 146.5641613 C-116.23421545 97.27718046 -116.23421545 97.27718046 -115.06030273 73.08422852 C-115.00397083 71.87251852 -115.00397083 71.87251852 -114.9465009 70.63632953 C-114.55683822 62.47376117 -113.95137275 54.46864466 -112.43379307 46.42072964 C-111.64394293 42.01306668 -111.54708703 37.59723747 -111.34375 33.12890625 C-111.00403659 30.03674211 -110.23547419 27.83070331 -109 25 C-108.7052809 23.69265628 -108.43268494 22.38003227 -108.1875 21.0625 C-107.0748997 16.54363111 -105.45904874 14.15157774 -102 11 C-98.1875 10.125 -98.1875 10.125 -95 10 C-92.42659045 13.0444394 -91.3589935 15.60361975 -90.4296875 19.46484375 C-90.17316406 20.51220703 -89.91664063 21.55957031 -89.65234375 22.63867188 C-89.39582031 23.72728516 -89.13929688 24.81589844 -88.875 25.9375 C-88.47861328 27.56461914 -88.47861328 27.56461914 -88.07421875 29.22460938 C-87.36664911 32.1464769 -86.66771433 35.06877109 -86 38 C-85.82489962 38.74033226 -85.64979923 39.48066452 -85.46939278 40.24343109 C-84.91881288 43.47678172 -84.87404521 46.53141354 -84.87301636 49.81237793 C-84.87145637 50.48570962 -84.86989638 51.15904132 -84.86828911 51.852777 C-84.86430845 54.10434772 -84.86745812 56.35585068 -84.87060547 58.60742188 C-84.86924952 60.22657816 -84.86746849 61.84573413 -84.86529541 63.46488953 C-84.86072676 67.87504389 -84.86251292 72.28517489 -84.8656745 76.69532967 C-84.86822164 81.36439193 -84.86585214 86.0334523 -84.86428833 90.70251465 C-84.86246484 98.59481152 -84.86486863 106.48709908 -84.86962891 114.37939453 C-84.87439685 122.37386693 -84.87451385 130.36832064 -84.86962891 138.36279297 C-84.82426891 214.64905483 -84.82426891 214.64905483 -85.4453125 246.34375 C-85.46472775 247.34078445 -85.48414299 248.33781891 -85.50414658 249.36506653 C-85.70606628 259.31682877 -86.00283974 269.26191145 -86.38338947 279.20843601 C-86.89807501 292.72404654 -87.16813999 306.22145289 -87.23007011 319.74641609 C-87.24691582 323.4009992 -87.26916192 327.05552053 -87.29249573 330.71006775 C-87.32619841 336.04408952 -87.3580552 341.37811686 -87.38842773 346.7121582 C-87.47158813 361.1949269 -87.57520355 375.67755686 -87.68359375 390.16015625 C-87.6920341 391.29263062 -87.6920341 391.29263062 -87.70064497 392.44798326 C-87.97080381 428.53819549 -88.40999277 464.62591502 -88.90122849 500.71372885 C-88.97784536 506.34552184 -89.05275561 511.97733563 -89.12692261 517.60916138 C-89.22769312 525.24848627 -89.33248942 532.8877485 -89.44013786 540.52697945 C-89.47944549 543.3211676 -89.51750019 546.1153678 -89.5543232 548.90958977 C-89.74873931 563.45600608 -90.07386504 577.98287391 -90.65342331 592.51921749 C-91.03688272 602.34904047 -91.18028042 612.16735149 -91.203125 622.00390625 C-91.20595238 622.86030134 -91.20877975 623.71669643 -91.21169281 624.59904289 C-91.22638505 629.09752551 -91.23581105 633.59597835 -91.24023438 638.09448242 C-91.24579799 642.69456289 -91.27007349 647.2943591 -91.29820633 651.8943491 C-91.3168715 655.4881829 -91.32203951 659.08194695 -91.32357025 662.67582512 C-91.32656856 664.3729305 -91.33449977 666.07003549 -91.34775543 667.76709175 C-91.99866403 680.91357631 -91.99866403 680.91357631 -88 693 C-82.59471196 697.20801438 -75.70850988 697.76037711 -69.0859375 698.2109375 C-68.14406586 698.28549164 -67.20219421 698.36004578 -66.23178101 698.43685913 C-54.38003851 699.3024433 -42.50286756 699.45894855 -30.625 699.625 C-28.3163938 699.66331981 -26.00779975 699.70237875 -23.69921875 699.7421875 C-18.13292296 699.83660412 -12.56654964 699.92205724 -7 700 C-7.16559366 654.17447185 -7.44608245 608.38953188 -10 562.625 C-10.04494095 561.81294601 -10.0898819 561.00089203 -10.13618469 560.16423035 C-10.43347748 554.80930883 -10.74208279 549.45514949 -11.0625 544.1015625 C-11.12263401 543.0905932 -11.12263401 543.0905932 -11.18398285 542.05920029 C-11.29777245 540.17028928 -11.41636209 538.28166928 -11.53515625 536.39306641 C-11.600979 535.34422272 -11.66680176 534.29537903 -11.73461914 533.2147522 C-11.9282997 530.86855807 -12.19783648 528.52827246 -12.51147461 526.19508362 C-13.09987808 521.62629721 -13.20783736 517.0876506 -13.28125 512.4855957 C-13.29929687 511.56896652 -13.31734375 510.65233734 -13.3359375 509.70793152 C-13.37434492 507.72955617 -13.41082278 505.75114261 -13.44555664 503.77269936 C-13.50079533 500.63053998 -13.56126991 497.48851854 -13.62304688 494.34648132 C-13.75338348 487.66857238 -13.8770241 480.99054794 -14 474.3125 C-14.14270516 466.5853778 -14.28822418 458.85832425 -14.43969727 451.13136864 C-14.49870552 448.05575181 -14.55318608 444.9800773 -14.60742188 441.90437317 C-14.77001712 433.23533482 -15.00672266 424.62433343 -15.76147461 415.98258972 C-16.21264652 410.34100704 -16.35885849 404.68706778 -16.53125 399.03125 C-16.5517894 398.37771042 -16.5723288 397.72417084 -16.5934906 397.05082703 C-17.16363387 378.73471822 -17.32801234 360.41187918 -17.52606201 342.08880615 C-17.71737911 324.48272755 -17.93794346 306.88088986 -18.46875 289.28125 C-18.50609253 287.96394897 -18.54343506 286.64664795 -18.58190918 285.28942871 C-18.62126587 284.09112427 -18.66062256 282.89281982 -18.70117188 281.65820312 C-18.75138489 280.08383484 -18.75138489 280.08383484 -18.8026123 278.47766113 C-18.84433727 275.99901722 -18.84433727 275.99901722 -20 274 C-20.13380506 271.50569294 -20.21061322 269.03519357 -20.24609375 266.5390625 C-20.27771985 264.95621357 -20.30954887 263.37336868 -20.34155273 261.79052734 C-20.35693085 260.95044128 -20.37230896 260.11035522 -20.38815308 259.24481201 C-20.65135688 245.27140843 -21.10317389 231.32600725 -21.9375 217.375 C-22.85131616 202.00153828 -23.59141343 186.62574546 -24.24536133 171.23901367 C-24.32752293 169.31168134 -24.40979843 167.38435387 -24.4921875 165.45703125 C-24.5534507 164.02247841 -24.5534507 164.02247841 -24.61595154 162.5589447 C-24.89446716 156.14494267 -25.22038947 149.7346796 -25.5703125 143.32421875 C-26.7097709 122.02015582 -27.18852123 100.77392421 -27.1875 79.4375 C-27.18840637 78.18480316 -27.18931274 76.93210632 -27.19024658 75.64144897 C-27.18995416 72.09293592 -27.18111117 68.54458035 -27.16796875 64.99609375 C-27.16616356 63.39154327 -27.16616356 63.39154327 -27.1643219 61.75457764 C-27.15803268 60.77394348 -27.15174347 59.79330933 -27.14526367 58.78295898 C-27.14145187 57.92749985 -27.13764008 57.07204071 -27.13371277 56.19065857 C-27 54 -27 54 -26 51 C-25.82244715 49.54153019 -25.68324362 48.07817229 -25.5703125 46.61328125 C-25.49683594 45.75669922 -25.42335938 44.90011719 -25.34765625 44.01757812 C-25.20086725 42.2342206 -25.06010057 40.45035567 -24.92578125 38.66601562 C-24.41892028 32.91443228 -23.22909491 28.32696526 -21 23 C-20.48877821 21.48290201 -19.98623995 19.96278841 -19.5 18.4375 C-18.2121653 14.51267044 -16.68470764 10.77053615 -15 7 C-14.34 7 -13.68 7 -13 7 C-12.62875 5.8553125 -12.62875 5.8553125 -12.25 4.6875 C-9.49180046 -1.242629 -6.12854184 -1.75101195 0 0 Z " fill="#010101" transform="translate(769,76)"/>
<path d="M0 0 C1.0684229 -0.00424107 1.0684229 -0.00424107 2.1584301 -0.00856781 C5.91999537 -0.02341101 9.68152368 -0.03273686 13.44311523 -0.03710938 C17.28787406 -0.04260741 21.13228125 -0.06670635 24.97692966 -0.09508133 C27.97382059 -0.11384596 30.9706285 -0.11892035 33.96757317 -0.12044525 C35.38392011 -0.12343544 36.80026692 -0.13133776 38.21655464 -0.14463043 C47.10231658 -0.22216148 54.98870664 0.57201672 63.49609375 3.203125 C63.49609375 3.863125 63.49609375 4.523125 63.49609375 5.203125 C64.57890625 5.4196875 64.57890625 5.4196875 65.68359375 5.640625 C70.05982179 8.0718628 71.74164487 11.58975843 73.49609375 16.203125 C74.18732815 20.69511553 74.15484233 25.11466223 74.10409546 29.65249634 C74.10699606 31.00409095 74.11209221 32.3556823 74.11917937 33.70726144 C74.13224122 37.40199045 74.11429883 41.09600499 74.0910809 44.7906599 C74.07148389 48.78250086 74.08088916 52.77428883 74.08666992 56.76615906 C74.09347817 64.57798742 74.07385239 72.38953598 74.04550664 80.20130707 C74.01362377 89.30079613 74.00925426 98.40023622 74.00631471 107.49977307 C74.00025335 123.73558711 73.97115148 139.97127617 73.92822266 156.20703125 C73.8866118 171.95801031 73.85828581 187.70893075 73.84619141 203.45996094 C73.84544319 204.43038616 73.84469498 205.40081138 73.84392409 206.40064342 C73.84094969 210.30145849 73.8380124 214.20227358 73.83513781 218.10308871 C73.82239889 234.9318063 73.79865682 251.76051086 73.77349955 268.58921379 C73.7695199 271.31245506 73.76580082 274.03569659 73.76214552 276.75893831 C73.74911429 286.29322673 73.73275943 295.82749203 73.70716111 305.36175586 C73.69658889 309.30385477 73.68747609 313.24594079 73.68259048 317.18805122 C73.67803073 320.79763766 73.66883351 324.40718166 73.65592904 328.01674764 C73.65019937 329.93879355 73.64925349 331.86085188 73.64848554 333.78290617 C73.57329142 350.78582733 73.57329142 350.78582733 67.49609375 358.203125 C62.09389401 363.08730559 56.85879759 365.54557634 49.49609375 365.203125 C49.49609375 365.863125 49.49609375 366.523125 49.49609375 367.203125 C48.41521484 367.49703125 48.41521484 367.49703125 47.3125 367.796875 C39.06760617 370.09317196 30.90221812 372.61086376 22.74609375 375.203125 C21.69365479 375.53505859 20.64121582 375.86699219 19.55688477 376.20898438 C13.82580103 378.04235487 8.24671546 380.06865042 2.68017578 382.35058594 C-0.06534585 383.42227849 -2.82028458 384.17073714 -5.69140625 384.828125 C-8.80689664 385.55265765 -11.83210388 386.30746529 -14.8828125 387.27734375 C-18.81270196 388.28207277 -22.20424605 388.43535016 -26.25390625 388.390625 C-27.548125 388.38417969 -28.84234375 388.37773438 -30.17578125 388.37109375 C-33.50390625 388.203125 -33.50390625 388.203125 -36.50390625 387.203125 C-36.50390625 386.543125 -36.50390625 385.883125 -36.50390625 385.203125 C-37.40109375 384.831875 -37.40109375 384.831875 -38.31640625 384.453125 C-42.94023371 381.81093788 -44.26800871 377.7174124 -45.84197998 372.87033081 C-47.05249495 367.99260846 -47.08294715 363.0865335 -47.19921875 358.08203125 C-47.23699432 356.94209213 -47.2747699 355.80215302 -47.31369019 354.62767029 C-47.43142057 351.00725178 -47.5309435 347.38662736 -47.62890625 343.765625 C-47.73753192 340.14839011 -47.85000073 336.53131168 -47.96554565 332.91429138 C-48.03603929 330.67164943 -48.10200758 328.42885889 -48.16262817 326.18592834 C-48.19291107 325.15463303 -48.22319397 324.12333771 -48.25439453 323.06079102 C-48.29078537 321.72250999 -48.29078537 321.72250999 -48.32791138 320.35719299 C-48.47651334 317.69404332 -48.7173111 315.07604778 -49 312.42514038 C-49.50333155 307.54332809 -49.71701191 302.69805692 -49.81591797 297.79321289 C-49.83640827 296.90852011 -49.85689857 296.02382732 -49.8780098 295.11232567 C-49.94329335 292.19606097 -50.00162037 289.27971954 -50.05859375 286.36328125 C-50.07952969 285.33974108 -50.10046562 284.3162009 -50.12203598 283.26164436 C-50.6060218 259.23441395 -50.66143524 235.20961852 -50.63288116 211.17831039 C-50.62883697 207.57896678 -50.62636253 203.97962475 -50.62420654 200.38027954 C-50.5978648 161.85561839 -50.43443548 123.33176321 -50.15602875 84.80815506 C-50.12902199 80.90734223 -50.10534981 77.00652205 -50.08258057 73.10568237 C-50.0461723 66.97105468 -49.99990161 60.83657772 -49.94596863 54.70207977 C-49.9275969 52.45498774 -49.91234478 50.20786757 -49.90052795 47.96073151 C-49.72551277 16.07753392 -49.72551277 16.07753392 -41.6796875 7.1875 C-31.33960332 -2.2429538 -12.91053284 0.03523785 0 0 Z " fill="#020202" transform="translate(533.50390625,503.796875)"/>
<path d="M0 0 C5.91115986 3.98360773 6.95383019 10.11009788 8.70703125 16.62890625 C10.41202117 22.74681127 12.02510517 26.94045743 17.4375 30.6875 C19.91550168 31.95672037 22.39102519 33.03095221 25 34 C25 34.66 25 35.32 25 36 C26.07314453 36.18369141 26.07314453 36.18369141 27.16796875 36.37109375 C30.05112713 37.01135375 32.58592473 37.93551556 35.3125 39.0625 C36.19550781 39.42472656 37.07851562 39.78695312 37.98828125 40.16015625 C38.65214844 40.43730469 39.31601563 40.71445312 40 41 C40 41.66 40 42.32 40 43 C40.639375 43.226875 41.27875 43.45375 41.9375 43.6875 C45.21877822 45.0937621 48.23865915 46.75734242 51.34375 48.51171875 C54.37680888 50.2111238 57.43601063 51.85704308 60.5 53.5 C73.14308271 60.29767135 73.14308271 60.29767135 78.83203125 63.6875 C85.38769648 67.59228648 91.9818519 71.00209028 99 74 C99 74.66 99 75.32 99 76 C99.721875 76.268125 100.44375 76.53625 101.1875 76.8125 C104.01482972 78.00626144 106.50078372 79.21484551 109 81 C109 81.99 109 82.98 109 84 C109.66 84 110.32 84 111 84 C113.16047461 89.34433193 113.01334724 92.37425582 111.1171875 97.7890625 C109.67664654 100.63992329 108.27840857 102.74113181 106 105 C98.91267024 106.40820147 92.30380544 105.353088 86 102 C84.67723944 101.62691369 83.34767923 101.26953585 82 101 C82 100.34 82 99.68 82 99 C81.01 98.9175 80.02 98.835 79 98.75 C75.21780116 98.21622194 72.31400841 96.82748911 68.96875 95.0390625 C67.19130373 94.10096586 65.34730786 93.29170337 63.5 92.5 C60.93592658 91.40111139 58.4818583 90.26002037 56 89 C51.54114304 86.74474803 47.05381909 84.65994475 42.2890625 83.12890625 C38.42666239 81.8032131 34.73176624 80.21443787 31 78.5625 C30.31421875 78.26279297 29.6284375 77.96308594 28.921875 77.65429688 C25.79615957 76.27933999 22.72830022 74.86255188 19.6796875 73.3203125 C17.0762448 72.03756668 14.8582011 71.42032369 12 71 C10.74284747 74.77145758 10.7819944 78.34246562 10.71279907 82.27584839 C10.69414028 83.13099907 10.67548148 83.98614975 10.65625727 84.86721408 C10.5949277 87.74587077 10.54069768 90.62461284 10.48681641 93.50341797 C10.44528437 95.56352821 10.40351918 97.62363376 10.36153793 99.68373489 C10.2488576 105.31169878 10.14381825 110.9397805 10.04132414 116.56793833 C9.97636644 120.12793237 9.90992457 123.68789654 9.84331131 127.24785995 C8.88335507 178.99691247 8.57777312 230.7444382 8.41056371 282.50121474 C8.37110691 294.61206183 8.32204705 306.72286589 8.27259517 318.83367562 C8.17184197 343.55575126 8.08183106 368.27785492 8 393 C8.83144531 392.6390625 9.66289063 392.278125 10.51953125 391.90625 C12.14955078 391.21015625 12.14955078 391.21015625 13.8125 390.5 C14.89144531 390.0359375 15.97039062 389.571875 17.08203125 389.09375 C20 388 20 388 23 388 C23 387.34 23 386.68 23 386 C24.04220703 385.61521484 24.04220703 385.61521484 25.10546875 385.22265625 C28.34370229 383.85481941 31.27357524 382.20514719 34.3125 380.4375 C35.55320723 379.72234704 36.79410018 379.00751618 38.03515625 378.29296875 C40.04099935 377.13369251 42.04614535 375.97324031 44.05029297 374.81103516 C57.51223076 367.02463256 57.51223076 367.02463256 63.4375 364.875 C69.7539928 362.51299508 75.56528823 359.04876251 78.5 352.8125 C79.07789404 348.40605796 79.4811966 344.00992466 79.75390625 339.57421875 C80 337 80 337 81 335 C81.09743646 332.64802523 81.12797416 330.29320074 81.12939453 327.93920898 C81.13114685 327.2121022 81.13289917 326.48499542 81.13470459 325.7358551 C81.13911899 323.32257729 81.13618443 320.90937237 81.1328125 318.49609375 C81.13348617 316.81657395 81.13445672 315.13705425 81.13571167 313.45753479 C81.1371885 309.92928137 81.13503645 306.40105322 81.13037109 302.87280273 C81.12470444 298.36953663 81.12793333 293.86633052 81.13394356 289.36306667 C81.13757581 285.8893235 81.13639786 282.41559428 81.13381577 278.94185066 C81.13315225 277.28301041 81.13395463 275.62416886 81.13629532 273.96533012 C81.14516177 265.90704842 81.05788833 258.00342587 80 250 C79.92922182 248.10390589 79.89098219 246.2059744 79.90234375 244.30859375 C79.90717773 242.86323242 79.90717773 242.86323242 79.91210938 241.38867188 C79.92467773 239.9278418 79.92467773 239.9278418 79.9375 238.4375 C79.94201172 237.42880859 79.94652344 236.42011719 79.95117188 235.38085938 C79.96283231 232.92050853 79.97919622 230.46028761 80 228 C76.89548451 228.13894148 73.79149165 228.287343 70.6875 228.4375 C69.80642578 228.47681641 68.92535156 228.51613281 68.01757812 228.55664062 C66.74624023 228.61948242 66.74624023 228.61948242 65.44921875 228.68359375 C64.66893311 228.72025146 63.88864746 228.75690918 63.0847168 228.79467773 C60.80670899 228.94125263 60.80670899 228.94125263 58 230 C55.37960286 230.17431213 52.80937916 230.27684435 50.1875 230.3125 C49.48818359 230.34150391 48.78886719 230.37050781 48.06835938 230.40039062 C42.95465782 230.46257783 39.9727485 229.48580474 36 226 C33.19140509 220.38401069 33.63205193 214.7082573 33.625 208.5625 C33.58826172 206.88317383 33.58826172 206.88317383 33.55078125 205.16992188 C33.52808825 198.79697147 33.67256286 194.81809452 38 190 C40 188 40 188 41.82495117 187.75708008 C42.55689697 187.76118896 43.28884277 187.76529785 44.04296875 187.76953125 C44.8630542 187.77073975 45.68313965 187.77194824 46.52807617 187.77319336 C47.84449097 187.79265015 47.84449097 187.79265015 49.1875 187.8125 C50.07993408 187.81967041 50.97236816 187.82684082 51.8918457 187.83422852 C74.10206049 188.10206049 74.10206049 188.10206049 76 190 C81.81479886 191.05914677 87.63026405 191.29517685 93.52734375 191.53515625 C94.51626114 191.57813339 95.50517853 191.62111053 96.52406311 191.66539001 C99.66174607 191.8010073 102.79960773 191.93182468 105.9375 192.0625 C108.07358133 192.15397927 110.20964923 192.24577279 112.34570312 192.33789062 C117.56365209 192.56223154 122.78175587 192.78263906 128 193 C128 193.66 128 194.32 128 195 C129.175625 195.1546875 129.175625 195.1546875 130.375 195.3125 C133 196 133 196 135 199 C135.38749213 201.32495277 135.71758117 203.6599583 136 206 C136.2475 206.845625 136.495 207.69125 136.75 208.5625 C137.19975483 212.94760964 135.09857861 215.53915553 132.54296875 218.9375 C129.24686198 222.49930601 127.04618867 223.88034482 122.140625 224.44140625 C118.40851458 224.50947174 114.71875797 224.30505436 111 224 C111.10399864 224.98790779 111.10399864 224.98790779 111.21009827 225.99577332 C111.89335298 232.90119944 112.17452442 239.7395635 112.24609375 246.67578125 C112.27906707 248.90950861 112.31227805 251.14323248 112.34570312 253.37695312 C112.39267344 256.8272028 112.43709652 260.27744208 112.47680664 263.7277832 C112.62846781 276.342905 113.01559645 288.82062759 114.27879333 301.37693787 C115.01059097 308.70602066 115.3370734 315.97071481 115.46386719 323.3347168 C115.52900288 327.012683 115.62352997 330.6898945 115.71875 334.3671875 C115.73856934 335.13693909 115.75838867 335.90669067 115.77880859 336.69976807 C116.04165586 346.3062923 116.51589488 355.90250493 117 365.5 C117.0419751 366.34971375 117.0839502 367.19942749 117.12719727 368.07489014 C117.65844504 378.99697602 117.65844504 378.99697602 118.54296875 389.89453125 C119.99577284 404.84379933 121.05827565 421.89779314 115 436 C114.01 436.33 113.02 436.66 112 437 C111.71125 437.78375 111.4225 438.5675 111.125 439.375 C109.69172623 442.71930547 108.23926521 443.45749275 105 445 C101.22865504 446.25711499 97.51191647 446.16792906 93.5625 446.1875 C92.26441406 446.20167969 90.96632813 446.21585938 89.62890625 446.23046875 C83.26409692 445.82624512 79.54115176 443.44023727 75 439 C73.0599 434.47527013 72.75660259 430.58106378 72.8125 425.6875 C72.81894531 425.02451904 72.82539062 424.36153809 72.83203125 423.6784668 C72.89746395 419.49333001 73.21393365 415.41569205 73.77734375 411.2734375 C74.24150817 406.53407442 74.07243523 401.75658041 74 397 C72.58847656 397.92232422 72.58847656 397.92232422 71.1484375 398.86328125 C69.8907315 399.67985156 68.632913 400.49624861 67.375 401.3125 C66.75753906 401.71662109 66.14007812 402.12074219 65.50390625 402.53710938 C62.64161216 404.39006818 59.85582452 406.07085997 56.7890625 407.578125 C54.08543679 408.95644399 52.20460599 410.37527481 50 412.4375 C46.82850578 415.30923106 43.58791526 417.65687167 40 420 C37.66694483 421.8503541 35.35100063 423.71834836 33.05078125 425.609375 C31 427 31 427 28 427 C28 427.66 28 428.32 28 429 C25.953125 430.3671875 25.953125 430.3671875 23.25 431.875 C20.48497519 433.41920976 18.23215424 434.76694244 15.9921875 437.015625 C13.77349374 439.225618 11.65244881 440.44173925 8.875 441.875 C5.08630806 443.87037775 1.39553471 445.94109253 -2.25 448.1875 C-13.56590232 455.00927023 -13.56590232 455.00927023 -20 454 C-26.04225848 451.57925415 -31.64473612 448.94172245 -35.0785675 443.19493103 C-36.16049404 440.61768946 -36.24742876 438.73444761 -36.24291992 435.94360352 C-36.24599655 434.93898575 -36.24907318 433.93436798 -36.25224304 432.89930725 C-36.24146477 431.28045876 -36.24146477 431.28045876 -36.23046875 429.62890625 C-36.22978142 427.95718605 -36.22978142 427.95718605 -36.2290802 426.25169373 C-36.2260602 423.89556819 -36.21818145 421.53944461 -36.20581055 419.18334961 C-36.1875877 415.57984324 -36.18530071 411.97659446 -36.18554688 408.37304688 C-36.18063012 406.08333112 -36.17480112 403.7936171 -36.16796875 401.50390625 C-36.16685593 400.42669815 -36.1657431 399.34949005 -36.16459656 398.23963928 C-36.15821671 397.23186935 -36.15183685 396.22409943 -36.14526367 395.18579102 C-36.14145187 394.30294937 -36.13764008 393.42010773 -36.13371277 392.51051331 C-35.99561203 389.91761411 -35.52518389 387.53980967 -35 385 C-34.84908282 383.36966037 -34.73155389 381.73597789 -34.64282227 380.10107422 C-34.58922043 379.14292816 -34.53561859 378.1847821 -34.48039246 377.19760132 C-34.42627701 376.16043976 -34.37216156 375.1232782 -34.31640625 374.0546875 C-34.25661087 372.95750397 -34.19681549 371.86032043 -34.13520813 370.72988892 C-33.93984309 367.11181514 -33.7506677 363.49345483 -33.5625 359.875 C-33.49685852 358.63049072 -33.43121704 357.38598145 -33.36358643 356.10375977 C-31.50978487 320.86520456 -30.01270934 285.61054194 -29.34130859 250.328125 C-29.31701027 249.16068001 -29.31701027 249.16068001 -29.29222107 247.96965027 C-29.24950741 245.90341389 -29.21134787 243.83708472 -29.17358398 241.77075195 C-29.02391364 238.51947423 -28.66447997 235.37108906 -28.23182678 232.14854431 C-27.78415179 227.99954326 -27.78061792 223.83349203 -27.71875 219.6640625 C-27.68099347 217.69401034 -27.64323294 215.72395826 -27.60546875 213.75390625 C-27.55163793 210.67270889 -27.49943788 207.59148799 -27.44775391 204.51025391 C-27.39615304 201.51977085 -27.33890575 198.52943396 -27.28125 195.5390625 C-27.26767456 194.61203522 -27.25409912 193.68500793 -27.2401123 192.72988892 C-27.22339478 191.87494843 -27.20667725 191.02000793 -27.18945312 190.13916016 C-27.17692505 189.38607574 -27.16439697 188.63299133 -27.15148926 187.85708618 C-27 186 -27 186 -26 184 C-25.77809298 181.07307941 -25.62015057 178.16623931 -25.50390625 175.234375 C-25.46350723 174.27964294 -25.42310822 173.32491089 -25.38148499 172.34124756 C-24.8038507 157.99838499 -24.44415593 143.64716474 -24.07006836 129.29785156 C-23.98243558 125.93970502 -23.89223982 122.58164385 -23.79956055 119.22363281 C-23.35682978 103.16748872 -22.92235285 87.10939157 -22.81640625 71.046875 C-22.80318832 70.01242249 -22.7899704 68.97796997 -22.77635193 67.91217041 C-22.76777883 62.5610865 -23.04016285 58.01122916 -25 53 C-27.35961336 51.27832955 -27.35961336 51.27832955 -30.25 50.375 C-36.55372 47.82545879 -41.13547924 45.61300186 -43.9375 39.0625 C-45.11755438 35.39121972 -45.00358818 32.76345568 -44 29 C-43.814375 28.05125 -43.62875 27.1025 -43.4375 26.125 C-43.293125 25.42375 -43.14875 24.7225 -43 24 C-42.34 24 -41.68 24 -41 24 C-40.89945313 23.4225 -40.79890625 22.845 -40.6953125 22.25 C-39.06514169 16.97484054 -34.23204613 12.4677585 -29.5625 9.6875 C-26.43295118 8.20508214 -23.36097332 6.99116127 -20.09765625 5.859375 C-17.74513168 4.89558467 -15.72265741 3.6499192 -13.5625 2.3125 C-9.04402072 -0.25499513 -5.12865845 -1.2073301 0 0 Z " fill="#010101" transform="translate(1268,441)"/>
<path d="M0 0 C1.875 2.0625 1.875 2.0625 1.875 4.0625 C2.46410156 4.15660156 3.05320312 4.25070312 3.66015625 4.34765625 C6.36548259 5.22080391 7.42281754 6.40083773 9.3125 8.5 C12.0464728 11.37417654 14.10703521 12.73862048 17.875 14.0625 C19.23000919 15.37379922 20.56171343 16.70941687 21.875 18.0625 C26.0493503 21.03092688 30.41163382 23.56301494 34.875 26.0625 C34.875 26.7225 34.875 27.3825 34.875 28.0625 C35.431875 28.18625 35.98875 28.31 36.5625 28.4375 C39.09614364 29.12226855 41.45421032 30.05383763 43.875 31.0625 C43.875 31.7225 43.875 32.3825 43.875 33.0625 C44.803125 33.330625 45.73125 33.59875 46.6875 33.875 C49.875 35.0625 49.875 35.0625 51.28515625 36.4921875 C53.19764267 38.381179 55.0631372 39.24940147 57.5 40.375 C61.96047228 42.52675276 65.99541783 45.01021807 70.0625 47.828125 C71.8561299 49.10882883 71.8561299 49.10882883 73.875 50.0625 C73.875 50.7225 73.875 51.3825 73.875 52.0625 C74.7103125 52.248125 74.7103125 52.248125 75.5625 52.4375 C78.09614364 53.12226855 80.45421032 54.05383763 82.875 55.0625 C82.875 55.7225 82.875 56.3825 82.875 57.0625 C83.865 57.0625 84.855 57.0625 85.875 57.0625 C85.875 57.7225 85.875 58.3825 85.875 59.0625 C86.46595459 59.18560547 87.05690918 59.30871094 87.66577148 59.43554688 C91.15061748 60.42450527 93.95787515 62.56370701 96.9375 64.5625 C101.66329473 67.7721379 101.66329473 67.7721379 106.875 70.0625 C107.89696992 71.04003644 108.89479625 72.0430881 109.875 73.0625 C111.19287285 74.08278865 112.52710653 75.08221384 113.875 76.0625 C120.59722222 80.95138889 120.59722222 80.95138889 121.6875 85.3125 C122.02164989 91.99549773 120.01125607 96.86263523 115.875 102.0625 C110.47923715 105.96305146 105.32327488 105.98368213 98.875 105.0625 C96.79375214 104.08427325 95.32165731 102.99083339 93.5859375 101.4921875 C91.61446246 99.84479055 89.57637738 98.71091115 87.3125 97.5 C84.61538079 96.04346373 82.0261803 94.54885718 79.5 92.8125 C76.93529774 90.93642291 76.93529774 90.93642291 73.875 90.0625 C73.875 89.4025 73.875 88.7425 73.875 88.0625 C73.14539063 87.77761719 72.41578125 87.49273438 71.6640625 87.19921875 C65.21519689 84.57089957 59.21169612 81.35717921 53.375 77.5625 C47.32039502 73.62915379 41.0137532 69.5910713 33.875 68.0625 C33.875 67.4025 33.875 66.7425 33.875 66.0625 C30.905 65.4025 27.935 64.7425 24.875 64.0625 C24.875 63.4025 24.875 62.7425 24.875 62.0625 C23.905625 61.959375 22.93625 61.85625 21.9375 61.75 C18.85639978 61.32127402 16.06226597 60.52878354 13.12109375 59.51953125 C12.32243896 59.24729736 11.52378418 58.97506348 10.70092773 58.69458008 C10.09837158 58.48599365 9.49581543 58.27740723 8.875 58.0625 C8.88580093 59.43581985 8.88580093 59.43581985 8.89682007 60.83688354 C9.13154935 94.31333159 8.40799143 127.76612896 7.65569502 161.2313174 C7.53253663 166.71465254 7.41184157 172.19803781 7.29251099 177.68145752 C6.54060095 212.21342625 5.75084511 246.74265616 4.69543457 281.26690674 C3.1967911 330.84873178 2.65050226 380.46520931 1.875 430.0625 C2.865 429.4025 3.855 428.7425 4.875 428.0625 C6.64048505 427.57809615 8.42222112 427.15169088 10.2109375 426.76171875 C17.23872281 425.07500803 23.80356677 422.56766226 30.5 419.875 C32.33606812 419.14579346 32.33606812 419.14579346 34.20922852 418.40185547 C41.87521007 415.33465542 49.45805298 412.12161444 56.97412109 408.70483398 C62.14830802 406.35587279 67.38477869 404.26731649 72.71484375 402.29296875 C75.64478211 401.15213985 78.49385683 399.88772012 81.35253906 398.58032227 C88.61879489 395.29233184 93.37936681 393.50631928 101.125 396.1875 C104.68256513 398.61311259 106.09364109 400.08869936 107.875 404.0625 C109.22437653 415.00897284 109.22437653 415.00897284 106.0859375 419.78515625 C98.12056367 427.98977276 86.34992536 432.88656661 75.875 437.0625 C73.84577034 438.09789837 71.8421433 439.17141631 69.83984375 440.2578125 C67.875 441.0625 67.875 441.0625 63.875 441.0625 C63.875 441.7225 63.875 442.3825 63.875 443.0625 C62.38613281 443.59037109 62.38613281 443.59037109 60.8671875 444.12890625 C52.71330617 447.07263331 45.02055098 450.351919 37.31640625 454.33984375 C33.82382493 456.08811658 30.29207693 457.62276609 26.6875 459.125 C20.50247658 461.72630739 14.70335478 464.75113763 8.875 468.0625 C8.00230469 468.53042969 7.12960937 468.99835938 6.23046875 469.48046875 C5.00263672 470.13982422 5.00263672 470.13982422 3.75 470.8125 C3.02554688 471.19921875 2.30109375 471.5859375 1.5546875 471.984375 C-0.2898636 472.96627278 -0.2898636 472.96627278 -1.125 475.0625 C-1.27969367 477.23924783 -1.37502106 479.4203348 -1.44140625 481.6015625 C-1.50424805 483.55449219 -1.50424805 483.55449219 -1.56835938 485.546875 C-1.60817299 486.92708045 -1.64788522 488.30728883 -1.6875 489.6875 C-1.73069407 491.07553415 -1.77430865 492.46355528 -1.81835938 493.8515625 C-1.92472 497.25510256 -2.02674714 500.65871778 -2.125 504.0625 C-2.785 504.0625 -3.445 504.0625 -4.125 504.0625 C-4.145625 504.92875 -4.16625 505.795 -4.1875 506.6875 C-5.48224518 511.34858265 -7.94305055 513.69628892 -12.125 516.0625 C-16.0625 516.4375 -16.0625 516.4375 -19.125 516.0625 C-19.125 515.4025 -19.125 514.7425 -19.125 514.0625 C-19.888125 513.959375 -20.65125 513.85625 -21.4375 513.75 C-24.44168865 512.98148662 -25.21439592 512.43248429 -27.125 510.0625 C-28.00390625 507.71484375 -28.00390625 507.71484375 -28.6875 505 C-28.94789063 504.02546875 -29.20828125 503.0509375 -29.4765625 502.046875 C-30.125 499.0625 -30.125 499.0625 -30.3359375 496.328125 C-30.58175306 493.53091343 -30.85391681 491.57809321 -32.125 489.0625 C-35.04591606 487.10088332 -37.90387194 485.78743562 -41.1796875 484.51171875 C-44.53686485 482.85984501 -45.948709 481.05368024 -48.125 478.0625 C-48.785 477.7325 -49.445 477.4025 -50.125 477.0625 C-53.45559563 470.63047817 -54.1361188 463.16015742 -53.125 456.0625 C-49.6564549 449.1254098 -45.1670724 446.73107481 -38.125 444.0625 C-36.46105325 443.71584443 -34.79556149 443.37573028 -33.125 443.0625 C-31.66755337 440.14760674 -32.00374605 437.60645646 -32.0075388 434.3491621 C-32.00698414 433.64767732 -32.00642949 432.94619253 -32.00585803 432.22345063 C-32.0052111 429.84915038 -32.01175925 427.47492257 -32.01820374 425.10063171 C-32.01919891 423.39067711 -32.01974933 421.6807222 -32.01989073 419.97076732 C-32.02154308 415.25327395 -32.02942757 410.53580791 -32.03825247 405.81832325 C-32.04665516 400.73778192 -32.04927725 395.65723747 -32.05250549 390.57669067 C-32.05881458 381.76697486 -32.06856181 372.95726824 -32.08040047 364.14755821 C-32.09734509 351.40462235 -32.10692068 338.66168881 -32.1142792 325.91874418 C-32.12623614 305.23887685 -32.1411896 284.55901313 -32.15942383 263.87915039 C-32.16051395 262.64048782 -32.16160407 261.40182524 -32.16272723 260.12562744 C-32.1783383 242.54632525 -32.19693024 224.96702747 -32.2167251 207.38772956 C-32.21811842 206.14997656 -32.21951173 204.91222356 -32.22094727 203.63696289 C-32.2223408 202.40071219 -32.22373433 201.16446149 -32.22517008 199.89074864 C-32.24818739 179.29392783 -32.26351446 158.69710988 -32.27250665 138.1002782 C-32.27836795 125.38642314 -32.29076454 112.67260708 -32.31147944 99.95876739 C-32.32516558 91.24934963 -32.33167924 82.53994555 -32.33248956 73.83051714 C-32.33319511 68.80112269 -32.33722718 63.77178645 -32.3499527 58.74240685 C-32.36153334 54.14143029 -32.36396381 49.54054455 -32.35901051 44.93955693 C-32.35885877 43.27197148 -32.36212436 41.60438162 -32.36908758 39.93681069 C-32.37804452 37.67554778 -32.37473552 35.41462514 -32.36830235 33.15336132 C-32.36960386 31.89567257 -32.37090537 30.63798382 -32.37224633 29.34218329 C-32.12948022 26.12192943 -31.45717366 23.97269717 -30.125 21.0625 C-29.70351125 19.13457923 -29.32823562 17.1959683 -29 15.25 C-28.83242188 14.27417969 -28.66484375 13.29835938 -28.4921875 12.29296875 C-28.37101562 11.55691406 -28.24984375 10.82085937 -28.125 10.0625 C-27.465 10.0625 -26.805 10.0625 -26.125 10.0625 C-26.104375 9.36125 -26.08375 8.66 -26.0625 7.9375 C-24.42502514 2.91591043 -20.16978459 0.33358231 -15.8125 -2.375 C-10.18193037 -3.55349132 -4.89677591 -3.03600106 0 0 Z " fill="#010101" transform="translate(352.125,453.9375)"/>
<path d="M0 0 C0.29132813 0.64066406 0.58265625 1.28132812 0.8828125 1.94140625 C1.81749541 4.13250217 1.81749541 4.13250217 3.875 4.9375 C10.76822076 8.38411038 14.38437548 18.15980259 16.70898438 25.12402344 C21.85219878 42.28526462 23.15869394 60.34250961 24.26367188 78.14550781 C24.30631165 78.82779449 24.34895142 79.51008118 24.3928833 80.21304321 C24.5092341 82.1217228 24.61859015 84.03082501 24.72753906 85.93994141 C24.88482486 89.03921765 24.88482486 89.03921765 26 92 C26.25814431 95.1837798 26.44144225 98.36137703 26.60546875 101.55078125 C26.77880744 104.58121967 27.03448616 107.10345849 28 110 C28.18312517 112.35155974 28.32194794 114.70665285 28.4375 117.0625 C28.89051437 125.29963864 29.76485294 133.45679682 30.72949219 141.64746094 C31.01384005 144.1203635 31.27872837 146.59477158 31.5390625 149.0703125 C31.67066772 150.3080542 31.67066772 150.3080542 31.80493164 151.57080078 C31.97343889 153.16003981 32.13939517 154.7495519 32.30249023 156.33935547 C32.67371579 160.29594896 32.67371579 160.29594896 34 164 C34.2639592 167.19683914 34.44382184 170.38684013 34.60546875 173.58984375 C34.76355994 177.42126627 34.76355994 177.42126627 36 181 C36.68625795 185.68792153 37.11026065 190.40935108 37.5625 195.125 C37.63003479 195.82874756 37.69756958 196.53249512 37.76715088 197.25756836 C38.80278399 208.33893646 39.32653249 219.37140176 39.375 230.5 C39.38258331 231.17468323 39.39016663 231.84936646 39.39797974 232.54449463 C39.46686181 240.06218477 39.23272858 246.16277905 36 253 C35.54625 254.11375 35.0925 255.2275 34.625 256.375 C32.72989339 259.43632607 31.41978691 260.07573327 28 261 C28 261.66 28 262.32 28 263 C17.38920215 263.62909869 10.34124626 263.37244475 2.03125 256.33203125 C-8.57024415 245.79364123 -14.30425068 229.64100483 -20.51318359 216.29394531 C-22.43001194 212.18979121 -24.42111687 208.19247518 -26.66796875 204.2578125 C-28.56950619 200.89895373 -29.81489388 197.6812942 -31 194 C-32.54938035 190.52614962 -34.21386452 187.10905165 -35.875 183.6875 C-39.58748594 176.00364558 -43.18774343 168.29763701 -46.50390625 160.43359375 C-48.18684126 156.57119198 -50.03510031 152.82019234 -51.9375 149.0625 C-52.61328125 147.72005208 -53.2890625 146.37760417 -53.96484375 145.03515625 C-54.98590827 143.00825232 -56.00891647 140.9825063 -57.03955078 138.96044922 C-59.19713195 134.70171435 -61.12731818 130.39378577 -63 126 C-63.67391653 124.56436678 -64.3553152 123.1322292 -65.04296875 121.703125 C-65.39423828 120.97222656 -65.74550781 120.24132812 -66.10742188 119.48828125 C-66.8358049 117.97882928 -67.56765593 116.47104652 -68.30273438 114.96484375 C-68.65013672 114.23910156 -68.99753906 113.51335937 -69.35546875 112.765625 C-69.67153076 112.11368164 -69.98759277 111.46173828 -70.31323242 110.79003906 C-71 109 -71 109 -71 106 C-71.66 106 -72.32 106 -73 106 C-74.15341698 103.77447742 -75.29781159 101.54504031 -76.4375 99.3125 C-76.76298828 98.68666016 -77.08847656 98.06082031 -77.42382812 97.41601562 C-79.17752313 93.96286361 -80.47760497 90.84806481 -81 87 C-81.99 87.495 -81.99 87.495 -83 88 C-83.06058594 89.28777344 -83.12117188 90.57554687 -83.18359375 91.90234375 C-83.26798247 93.58074159 -83.3526313 95.25912636 -83.4375 96.9375 C-83.47681641 97.78763672 -83.51613281 98.63777344 -83.55664062 99.51367188 C-83.61948242 100.72700195 -83.61948242 100.72700195 -83.68359375 101.96484375 C-83.72025146 102.7137085 -83.75690918 103.46257324 -83.79467773 104.23413086 C-84 106 -84 106 -85 107 C-85.21045244 109.97750519 -85.3574817 112.93608464 -85.46484375 115.91796875 C-85.50235245 116.85764496 -85.53986115 117.79732117 -85.57850647 118.76547241 C-85.70265016 121.90599034 -85.8199526 125.04672883 -85.9375 128.1875 C-86.02366233 130.384701 -86.11025787 132.58188505 -86.19726562 134.77905273 C-86.61663684 145.46321897 -87.00904939 156.14823483 -87.37928772 166.83421326 C-87.50349865 170.41792745 -87.62965691 174.00156914 -87.75610352 177.58520508 C-87.91587636 182.11348829 -88.06771246 186.64193687 -88.21459961 191.1706543 C-88.57508236 201.79046204 -89.09864112 212.37378547 -89.97265625 222.96484375 C-90.05205444 223.92773819 -90.13145264 224.89063263 -90.21325684 225.88270569 C-91.239408 237.59431679 -92.60682704 249.03542348 -97 260 C-97.66 260 -98.32 260 -99 260 C-99.3403125 260.86625 -99.3403125 260.86625 -99.6875 261.75 C-101.4029194 264.69071898 -103.12861793 266.17275686 -106 268 C-109.7222681 268.62037802 -111.37683429 268.37093197 -114.625 266.4375 C-122.18864554 258.67481115 -123.32584592 249.25123186 -123.23046875 238.8359375 C-123.23001053 237.99962799 -123.22955231 237.16331848 -123.2290802 236.30166626 C-123.22608231 234.54875249 -123.21827096 232.79584079 -123.20581055 231.04296875 C-123.18749933 228.37490301 -123.18530173 225.70718473 -123.18554688 223.0390625 C-123.18063216 221.32551786 -123.17480404 219.61197555 -123.16796875 217.8984375 C-123.16685593 217.1097226 -123.1657431 216.32100769 -123.16459656 215.50839233 C-123.15821671 214.75716095 -123.15183685 214.00592957 -123.14526367 213.23193359 C-123.14145187 212.58179291 -123.13764008 211.93165222 -123.13371277 211.2618103 C-123 209 -123 209 -122.51126099 205.68882751 C-122.00215866 202.01557504 -121.79140456 198.45221577 -121.67456055 194.74682617 C-121.65149401 194.05460653 -121.62842747 193.36238689 -121.60466194 192.6491909 C-121.55499579 191.15009081 -121.50697173 189.65093559 -121.46042824 188.15173531 C-121.35881052 184.89988147 -121.24710363 181.64839565 -121.13602352 178.39685345 C-121.04684944 175.78495967 -120.95882223 173.17302862 -120.87078857 170.56109619 C-119.9457963 143.30801547 -118.85893073 116.13240921 -116.3581543 88.96948242 C-116.19407995 87.18021413 -116.03041469 85.39090827 -115.8671875 83.6015625 C-115.75021263 82.32479393 -115.75021263 82.32479393 -115.63087463 81.02223206 C-114.9265864 72.94399603 -114.60413045 64.85817591 -114.34786987 56.75454712 C-114.04339681 47.46282324 -113.41759805 38.26842322 -111.6875 29.125 C-111.35298828 27.27261719 -111.35298828 27.27261719 -111.01171875 25.3828125 C-109.92422644 21.7466413 -108.46971685 19.82957579 -106 17 C-105.67 16.01 -105.34 15.02 -105 14 C-104.34 14 -103.68 14 -103 14 C-102.67 13.01 -102.34 12.02 -102 11 C-97.71 11 -93.42 11 -89 11 C-89 11.66 -89 12.32 -89 13 C-87.68 13 -86.36 13 -85 13 C-85 13.66 -85 14.32 -85 15 C-84.41605469 15.26167969 -83.83210938 15.52335938 -83.23046875 15.79296875 C-78.67916293 18.2559346 -74.64702919 21.97264189 -73.0625 26.9375 C-73.041875 27.618125 -73.02125 28.29875 -73 29 C-72.34 29 -71.68 29 -71 29 C-70.20576139 30.56119422 -69.41472877 32.12401964 -68.625 33.6875 C-68.18414063 34.55761719 -67.74328125 35.42773438 -67.2890625 36.32421875 C-66 39 -66 39 -65.01171875 41.5390625 C-63.95238203 44.11582749 -62.66553469 46.32810425 -61.1875 48.6875 C-57.46164509 54.79426707 -54.18155381 61.07816608 -51.4375 67.6875 C-50.15145047 70.65100544 -48.67692298 73.38420346 -47.05078125 76.171875 C-45.90933411 78.15773842 -44.81327513 80.1586358 -43.75 82.1875 C-43.24726562 83.13689453 -43.24726562 83.13689453 -42.734375 84.10546875 C-42 86 -42 86 -42 90 C-41.34 90 -40.68 90 -40 90 C-39.4121875 91.7325 -39.4121875 91.7325 -38.8125 93.5 C-37.36722391 97.37690174 -35.45273547 100.657039 -33.20703125 104.1171875 C-30.55647007 108.25171983 -29 111.04645422 -29 116 C-28.34 116 -27.68 116 -27 116 C-26.65388672 116.81791016 -26.65388672 116.81791016 -26.30078125 117.65234375 C-24.14692137 122.63261263 -21.7617508 127.31264702 -18.953125 131.95703125 C-18 134 -18 134 -18 138 C-17.34 138 -16.68 138 -16 138 C-16 139.32 -16 140.64 -16 142 C-15.34 142 -14.68 142 -14 142 C-13.32591692 143.26691507 -12.66099503 144.53870749 -12 145.8125 C-11.62875 146.52019531 -11.2575 147.22789062 -10.875 147.95703125 C-10 150 -10 150 -10 153 C-9.34 153 -8.68 153 -8 153 C-8.30808594 152.33355469 -8.61617187 151.66710937 -8.93359375 150.98046875 C-10.1928836 147.46091506 -10.65078466 144.00361757 -11.0625 140.3125 C-11.481772 135.51170936 -11.481772 135.51170936 -13 131 C-13.35496278 128.0201024 -13.66309292 125.0499919 -13.9375 122.0625 C-14.11162868 120.25387247 -14.28611744 118.44527958 -14.4609375 116.63671875 C-14.54956055 115.70778809 -14.63818359 114.77885742 -14.72949219 113.82177734 C-15.15932635 109.3380019 -15.60542443 104.8560736 -16.0625 100.375 C-16.14169678 99.56426025 -16.22089355 98.75352051 -16.30249023 97.91821289 C-16.65223524 93.82923469 -16.65223524 93.82923469 -18 90 C-18.18426839 88.66648826 -18.32029758 87.32610606 -18.4296875 85.984375 C-18.5371228 84.74179932 -18.5371228 84.74179932 -18.64672852 83.47412109 C-18.7597229 82.12568115 -18.7597229 82.12568115 -18.875 80.75 C-19.64861355 72.03380277 -20.69078658 63.38505972 -21.94677734 54.72558594 C-23.30256896 45.27265572 -24.18667905 35.86604845 -24.25 26.3125 C-24.270625 25.52294922 -24.29125 24.73339844 -24.3125 23.91992188 C-24.36497026 15.96411797 -22.09757085 9.2627299 -17 3 C-11.73420423 -0.8530213 -6.24352295 -0.29995573 0 0 Z " fill="#010101" transform="translate(1149,555)"/>
<path d="M0 0 C15.72119882 12.3035469 20.1182079 36.35045549 23.296875 55.15234375 C23.70850109 58.14660756 23.70850109 58.14660756 24.875 60.25 C25.18369938 62.54809536 25.38383648 64.84720129 25.59375 67.15625 C25.767155 69.30443933 25.767155 69.30443933 26.875 71.25 C27.22542821 73.48526817 27.53012149 75.72777628 27.8125 77.97265625 C27.98696728 79.32877757 28.16144681 80.68489732 28.3359375 82.04101562 C28.6069658 84.18287838 28.87655888 86.3249162 29.14550781 88.46704102 C29.40600996 90.53187577 29.6715598 92.59601601 29.9375 94.66015625 C30.09347656 95.89902588 30.24945312 97.13789551 30.41015625 98.41430664 C30.57447879 101.1439478 30.57447879 101.1439478 31.875 102.25 C32.4369518 104.76859228 32.95476773 107.27873303 33.4375 109.8125 C33.57607422 110.52341797 33.71464844 111.23433594 33.85742188 111.96679688 C34.20005054 113.72719932 34.53796553 115.48851797 34.875 117.25 C35.89980469 117.29898438 36.92460938 117.34796875 37.98046875 117.3984375 C39.3411706 117.47351071 40.70184644 117.54905655 42.0625 117.625 C42.73603516 117.6559375 43.40957031 117.686875 44.10351562 117.71875 C48.05272409 117.94992318 51.39189954 118.31564657 54.875 120.25 C56.203125 121.984375 56.203125 121.984375 57.125 124 C57.43953125 124.65484375 57.7540625 125.3096875 58.078125 125.984375 C59.91590764 131.20944329 60.01101327 136.37937677 60 141.875 C60.00257813 143.16664063 60.00515625 144.45828125 60.0078125 145.7890625 C59.80119705 151.17321795 59.80119705 151.17321795 58.875 153.25 C56.984375 154.62890625 56.984375 154.62890625 54.625 155.8125 C53.40876953 156.43898438 53.40876953 156.43898438 52.16796875 157.078125 C51.41128906 157.46484375 50.65460938 157.8515625 49.875 158.25 C48.905625 158.848125 47.93625 159.44625 46.9375 160.0625 C44.875 161.25 44.875 161.25 42.875 161.25 C43.05675781 161.88164062 43.23851562 162.51328125 43.42578125 163.1640625 C46.40072684 173.75181757 48.78021333 184.30213332 49.875 195.25 C50.205 195.91 50.535 196.57 50.875 197.25 C51.22418425 199.32749955 51.5293272 201.41247822 51.8125 203.5 C52.07160156 205.37171875 52.07160156 205.37171875 52.3359375 207.28125 C52.60660449 209.26942205 52.87605126 211.25775734 53.14550781 213.24609375 C53.40667025 215.16445058 53.67202431 217.08223531 53.9375 219 C54.09347656 220.14984375 54.24945312 221.2996875 54.41015625 222.484375 C54.72774391 225.19946481 54.72774391 225.19946481 55.875 227.25 C55.99875 228.52875 56.1225 229.8075 56.25 231.125 C56.62163081 234.78324083 57.31008126 238.19593225 58.25 241.75 C62.28601838 257.37714504 66.70465608 275.75787984 59.5625 291.0625 C57.50668627 293.72744373 55.71005945 295.40221735 52.875 297.25 C50.11366047 297.53614917 47.79354388 297.63589883 45.0625 297.5 C44.36962891 297.48195313 43.67675781 297.46390625 42.96289062 297.4453125 C41.26632336 297.39851064 39.57047524 297.32677624 37.875 297.25 C37.875 296.59 37.875 295.93 37.875 295.25 C36.555 295.25 35.235 295.25 33.875 295.25 C33.875 294.59 33.875 293.93 33.875 293.25 C33.318125 293.064375 32.76125 292.87875 32.1875 292.6875 C26.35972716 289.0648304 23.65184145 282.12067913 21.3125 275.9375 C21.01512939 275.16132324 20.71775879 274.38514648 20.41137695 273.58544922 C17.35830281 265.31909911 15.48838497 256.89587039 13.875 248.25 C13.66101562 247.15945313 13.44703125 246.06890625 13.2265625 244.9453125 C12.069854 238.62532549 11.55372052 232.35325749 11.15234375 225.9453125 C10.70826969 220.02849479 9.91431792 214.16211593 9.13671875 208.28222656 C8.87762917 206.27041531 8.63856819 204.25725247 8.40625 202.2421875 C7.59475809 195.26744431 6.62533233 188.34694176 5.375 181.4375 C5.19723022 180.42333008 5.19723022 180.42333008 5.01586914 179.38867188 C4.39247107 176.08081081 3.77413977 174.09870966 1.875 171.25 C-4.75987011 170.12768366 -10.24146136 171.25054893 -16.125 174.25 C-17.218125 174.58 -18.31125 174.91 -19.4375 175.25 C-22.42309816 176.06190976 -22.42309816 176.06190976 -24.125 179.25 C-25.97458661 184.669084 -26.6577923 189.94100603 -27.1875 195.625 C-27.99706266 204.12206266 -27.99706266 204.12206266 -29.125 205.25 C-29.33337419 207.07906235 -29.49249659 208.91388134 -29.625 210.75 C-30.01388889 216.13888889 -30.01388889 216.13888889 -31.125 217.25 C-31.33396317 219.05811184 -31.49280361 220.87216032 -31.625 222.6875 C-32.01507634 228.03015267 -32.01507634 228.03015267 -33.125 230.25 C-33.65671001 233.94516116 -34.08751382 237.64833079 -34.52734375 241.35546875 C-35.10620185 245.12750485 -36.06044694 248.59112276 -37.125 252.25 C-37.47308674 254.36946146 -37.78638458 256.49496678 -38.0625 258.625 C-39.21949795 266.49800946 -41.34583792 273.23155613 -45.125 280.25 C-45.785 280.25 -46.445 280.25 -47.125 280.25 C-47.3725 280.848125 -47.62 281.44625 -47.875 282.0625 C-49.34465004 284.63438757 -50.55590159 285.78194377 -53.125 287.25 C-56.77492361 287.70624045 -59.01883678 287.16566875 -62.125 285.25 C-63.5390625 283.3671875 -63.5390625 283.3671875 -64.75 281.125 C-65.15476562 280.40054687 -65.55953125 279.67609375 -65.9765625 278.9296875 C-69.34372562 271.07297356 -69.40468823 263.75014877 -69.3125 255.3125 C-69.31185547 254.16458984 -69.31121094 253.01667969 -69.31054688 251.83398438 C-69.26555525 243.39055525 -69.26555525 243.39055525 -68.125 242.25 C-67.87490139 240.86685901 -67.68103739 239.47345991 -67.51171875 238.078125 C-67.34446289 236.75578857 -67.34446289 236.75578857 -67.17382812 235.40673828 C-66.9949707 233.96790283 -66.9949707 233.96790283 -66.8125 232.5 C-65.4664918 222.14960274 -63.64962768 211.94781822 -61.61132812 201.71435547 C-60.8376677 197.79400992 -60.10620399 193.8659467 -59.375 189.9375 C-59.13265625 188.64199219 -58.8903125 187.34648437 -58.640625 186.01171875 C-58.47046875 185.10035156 -58.3003125 184.18898438 -58.125 183.25 C-61.22325487 182.60430415 -64.29485983 182.06035561 -67.4375 181.6875 C-68.654375 181.543125 -69.87125 181.39875 -71.125 181.25 C-71.125 180.59 -71.125 179.93 -71.125 179.25 C-72.115 179.25 -73.105 179.25 -74.125 179.25 C-74.125 178.59 -74.125 177.93 -74.125 177.25 C-74.785 177.25 -75.445 177.25 -76.125 177.25 C-78.40719901 173.82670149 -78.42241163 172.40862332 -78.4375 168.375 C-78.45425781 167.34632813 -78.47101562 166.31765625 -78.48828125 165.2578125 C-77.96243659 160.90404491 -76.18403755 158.30903755 -73.125 155.25 C-72.135 155.25 -71.145 155.25 -70.125 155.25 C-70.125 154.59 -70.125 153.93 -70.125 153.25 C-69.31675781 152.92386719 -68.50851562 152.59773437 -67.67578125 152.26171875 C-66.60714844 151.82472656 -65.53851562 151.38773438 -64.4375 150.9375 C-62.85388672 150.29361328 -62.85388672 150.29361328 -61.23828125 149.63671875 C-57.40164116 147.92780127 -54.10492656 146.22992656 -51.125 143.25 C-50.52406455 140.7427478 -50.01012347 138.28416461 -49.5625 135.75 C-48.23621324 128.47242647 -48.23621324 128.47242647 -47.125 126.25 C-46.90425159 124.51267194 -46.73369362 122.76881593 -46.58984375 121.0234375 C-46.50283203 119.9921875 -46.41582031 118.9609375 -46.32617188 117.8984375 C-46.23916016 116.81820312 -46.15214844 115.73796875 -46.0625 114.625 C-45.97162109 113.53703125 -45.88074219 112.4490625 -45.78710938 111.328125 C-45.56274049 108.63569843 -45.34219886 105.94301291 -45.125 103.25 C-44.465 103.25 -43.805 103.25 -43.125 103.25 C-43.13660156 102.25097656 -43.14820313 101.25195312 -43.16015625 100.22265625 C-43.16917969 98.93230469 -43.17820312 97.64195312 -43.1875 96.3125 C-43.19910156 95.02472656 -43.21070313 93.73695313 -43.22265625 92.41015625 C-43.125 89.25 -43.125 89.25 -42.125 88.25 C-41.76049544 86.0078375 -41.46145299 83.75501796 -41.1875 81.5 C-41.10177734 80.80277832 -41.01605469 80.10555664 -40.92773438 79.38720703 C-40.42396157 75.17224662 -39.99711807 70.95481245 -39.62109375 66.7265625 C-39.53786865 65.79682617 -39.45464355 64.86708984 -39.36889648 63.90917969 C-39.20908871 62.08490754 -39.05600655 60.26003087 -38.91040039 58.43457031 C-38.50197661 53.73031573 -37.78333595 49.7056045 -36.125 45.25 C-34.62776631 39.47597917 -33.17913949 33.69851781 -32.625 27.75 C-32.09318117 24.02726817 -31.04629535 22.41476145 -29.125 19.25 C-28.35035596 17.33022999 -27.62033154 15.39181097 -26.9375 13.4375 C-26.59332031 12.46167969 -26.24914062 11.48585937 -25.89453125 10.48046875 C-25.64058594 9.74441406 -25.38664063 9.00835937 -25.125 8.25 C-24.135 8.25 -23.145 8.25 -22.125 8.25 C-21.8465625 7.4146875 -21.8465625 7.4146875 -21.5625 6.5625 C-19.19518586 2.75421203 -15.383219 -0.06046748 -11.078125 -1.375 C-6.6657993 -2.22216653 -3.99135599 -2.23515936 0 0 Z " fill="#010101" transform="translate(1040.125,156.75)"/>
<path d="M0 0 C11.60231154 5.971778 15.73415125 17.96923533 19.54296875 29.66015625 C23.49238072 42.17757779 26.46685482 54.639172 27.69140625 67.734375 C28.24729382 71.8155749 29.28401712 75.79362062 30.23828125 79.796875 C31.9141817 86.84425126 33.19349998 93.74065274 33.75390625 100.96875 C33.89231607 103.06495754 33.89231607 103.06495754 35 105 C35.20395706 106.39087382 35.36513121 107.78823631 35.5 109.1875 C35.90338649 113.14452935 36.41409979 117.06609862 37 121 C37.99 120.67 38.98 120.34 40 120 C42.33175914 119.90471177 44.66629974 119.87013812 47 119.875 C48.85625 119.87113281 48.85625 119.87113281 50.75 119.8671875 C54 120 54 120 57 121 C57 121.66 57 122.32 57 123 C57.66 123 58.32 123 59 123 C61.72551169 129.78377648 62.60359497 135.96506959 62.6875 143.25 C62.76774414 144.70019531 62.76774414 144.70019531 62.84960938 146.1796875 C62.93922993 153.02858462 62.93922993 153.02858462 60.27587891 155.78320312 C57.04515437 157.88817004 54.89720312 159 51 159 C51 159.66 51 160.32 51 161 C49.02 161.99 49.02 161.99 47 163 C47.93062457 170.42519606 48.88262877 177.79455839 50.44140625 185.1171875 C51.19768101 189.02019987 51.77676863 192.94512271 52.375 196.875 C54.28963685 209.30594331 56.68615732 221.64466481 59.625 233.875 C60.99300145 239.60722346 61.82928756 245.35552205 62.5703125 251.19921875 C62.84531357 253.94596738 62.84531357 253.94596738 64 256 C64.20881716 258.18387944 64.36771145 260.37265211 64.5 262.5625 C64.77083429 266.81285107 65.08741528 271.02513549 65.625 275.25 C66 279 66 279 65 281 C64.79907217 282.49579604 64.63663934 283.99696724 64.5 285.5 C64.11111111 289.77777778 64.11111111 289.77777778 63 292 C62.34 292 61.68 292 61 292 C60.7525 292.598125 60.505 293.19625 60.25 293.8125 C58.75383585 296.43078726 57.58683482 297.44270814 55 299 C49.14349306 300.08426514 43.41706467 300.23241637 38.03515625 297.48828125 C26.6804261 288.79721712 22.43263681 276.13289881 19.375 262.625 C19.16262695 261.71322998 18.95025391 260.80145996 18.73144531 259.86206055 C17.37942379 253.9619015 16.21682556 248.07561063 15.359375 242.08203125 C15.09409045 239.94771311 15.09409045 239.94771311 14 238 C13.78853016 235.93247847 13.63094233 233.85933533 13.5 231.78515625 C13.4175 230.54185547 13.335 229.29855469 13.25 228.01757812 C13.1675 226.71240234 13.085 225.40722656 13 224.0625 C12.83695079 221.49065352 12.67044792 218.91902298 12.5 216.34765625 C12.4278125 215.20304932 12.355625 214.05844238 12.28125 212.87915039 C12.10122618 209.932851 12.10122618 209.932851 11 207 C10.74028599 203.3279325 10.55675791 199.66151273 10.39453125 195.984375 C10.56354441 192.17936028 10.56354441 192.17936028 9 189 C8.84141197 187.44055103 8.72321421 185.8769121 8.625 184.3125 C8.21232846 179.94193326 7.57120611 176.67315159 5 173 C1.90377182 171.22994389 0.42148817 170.92245462 -3.12109375 171.57421875 C-4.21550781 171.94160156 -5.30992187 172.30898438 -6.4375 172.6875 C-7.52933594 173.04199219 -8.62117187 173.39648438 -9.74609375 173.76171875 C-15.93620112 175.8395835 -15.93620112 175.8395835 -20.42578125 180.234375 C-20.71839844 181.06453125 -21.01101563 181.8946875 -21.3125 182.75 C-21.62445312 183.63042969 -21.93640625 184.51085937 -22.2578125 185.41796875 C-23.18019025 188.6268724 -23.64725736 191.68421921 -24 195 C-24.33 195.33 -24.66 195.66 -25 196 C-25.20837419 197.82906235 -25.36749659 199.66388134 -25.5 201.5 C-25.88888889 206.88888889 -25.88888889 206.88888889 -27 208 C-27.23363881 209.84891946 -27.41303635 211.70488031 -27.5625 213.5625 C-27.64628906 214.57441406 -27.73007812 215.58632813 -27.81640625 216.62890625 C-27.87699219 217.41136719 -27.93757812 218.19382812 -28 219 C-28.66 219 -29.32 219 -30 219 C-29.98839844 219.73863281 -29.97679687 220.47726562 -29.96484375 221.23828125 C-29.87250696 231.61957427 -30.34251176 241.90984934 -33 252 C-33.33 252.33 -33.66 252.66 -34 253 C-34.15958101 254.35052814 -34.27728276 255.70609162 -34.375 257.0625 C-34.77801804 261.04230314 -35.66902418 264.35329538 -37.19140625 268.0390625 C-37.7232167 269.32876706 -38.21198184 270.63721487 -38.65234375 271.9609375 C-40.61863239 277.84816858 -43.59000867 284.86377975 -49.0078125 288.2578125 C-52.09294157 289.40717431 -53.88801998 289.01615674 -57 288 C-63.26634694 282.02511106 -65.73978241 274.30350006 -66.09375 265.72900391 C-66.13463615 263.08929198 -66.1385925 260.45249097 -66.125 257.8125 C-66.12161621 256.87720459 -66.11823242 255.94190918 -66.11474609 254.97827148 C-65.99372087 238.80170222 -65.99372087 238.80170222 -64.03881836 233.29003906 C-62.95859349 229.86886153 -62.42023831 226.66173272 -61.96484375 223.10546875 C-61.79533203 221.82091797 -61.62582031 220.53636719 -61.45117188 219.21289062 C-61.2794239 217.87116072 -61.10820606 216.52936286 -60.9375 215.1875 C-60.59746161 212.53444278 -60.25138477 209.88237809 -59.90234375 207.23046875 C-59.75273193 206.05895264 -59.60312012 204.88743652 -59.44897461 203.68041992 C-59 201 -59 201 -58 200 C-57.76807135 198.48530552 -57.58784762 196.96245438 -57.4375 195.4375 C-57.35371094 194.61121094 -57.26992188 193.78492188 -57.18359375 192.93359375 C-57.09271484 191.97646484 -57.09271484 191.97646484 -57 191 C-56.34 191 -55.68 191 -55 191 C-55.33 189.35 -55.66 187.7 -56 186 C-56.99 185.67 -57.98 185.34 -59 185 C-59 184.34 -59 183.68 -59 183 C-59.825 183.103125 -60.65 183.20625 -61.5 183.3125 C-66.29969538 182.88395577 -69.37978055 181.13487135 -73 178 C-75.83567311 173.74649033 -76.23406495 170.79324046 -75.4375 165.875 C-74.35380649 161.66134466 -73.38888024 158.89294654 -70 156 C-66.41810304 154.10955438 -62.75312889 152.51722232 -59 151 C-58.12214844 150.62230469 -57.24429687 150.24460937 -56.33984375 149.85546875 C-54 149 -54 149 -51 149 C-50.79503906 148.36191406 -50.59007812 147.72382813 -50.37890625 147.06640625 C-50.10949219 146.24011719 -49.84007812 145.41382813 -49.5625 144.5625 C-49.29566406 143.73878906 -49.02882813 142.91507813 -48.75390625 142.06640625 C-48 140 -48 140 -47 139 C-46.76807135 137.48530552 -46.58784762 135.96245438 -46.4375 134.4375 C-46.35371094 133.61121094 -46.26992188 132.78492188 -46.18359375 131.93359375 C-46.09271484 130.97646484 -46.09271484 130.97646484 -46 130 C-45.34 130 -44.68 130 -44 130 C-44.02320313 129.28457031 -44.04640625 128.56914062 -44.0703125 127.83203125 C-44.19118809 121.15797187 -43.6334336 114.94679546 -42.50390625 108.375 C-41.80489289 103.69323609 -41.56508769 99.01462224 -41.34375 94.2890625 C-41 91 -41 91 -40.04321289 87.75878906 C-39.00115524 84.00416242 -38.42890399 80.43607566 -37.96484375 76.5703125 C-37.88126114 75.89451141 -37.79767853 75.21871033 -37.71156311 74.52243042 C-37.44826897 72.39055792 -37.1921661 70.25791909 -36.9375 68.125 C-36.67878562 65.97072835 -36.4184138 63.81672274 -36.15272522 61.66329956 C-35.91376685 59.725449 -35.68120955 57.78681232 -35.44897461 55.84814453 C-35 53 -35 53 -34 52 C-33.76712992 50.31816052 -33.58735834 48.6287584 -33.4375 46.9375 C-33.35371094 46.01839844 -33.26992188 45.09929687 -33.18359375 44.15234375 C-33.09271484 43.08693359 -33.09271484 43.08693359 -33 42 C-32.34 42 -31.68 42 -31 42 C-31.02320313 41.43152344 -31.04640625 40.86304688 -31.0703125 40.27734375 C-31.19122136 35.10417195 -30.73248286 30.93757616 -29 26 C-28.75507812 25.23945313 -28.51015625 24.47890625 -28.2578125 23.6953125 C-24.98991618 14.41217341 -18.97529882 6.74963404 -11 1 C-7.21999574 -0.26000142 -3.90871196 -0.72590365 0 0 Z " fill="#010101" transform="translate(556,153)"/>
<path d="M0 0 C1.640625 1.04296875 1.640625 1.04296875 3.890625 3.16796875 C3.890625 3.82796875 3.890625 4.48796875 3.890625 5.16796875 C4.550625 5.16796875 5.210625 5.16796875 5.890625 5.16796875 C7.61581766 8.90474969 8.13916128 11.81189195 8.078125 15.91796875 C8.07167969 16.8821875 8.06523437 17.84640625 8.05859375 18.83984375 C7.890625 21.16796875 7.890625 21.16796875 6.890625 22.16796875 C6.44628147 24.245575 6.03604874 26.33049924 5.640625 28.41796875 C4.1264297 35.68610621 1.73932688 42.30836453 -1.109375 49.16796875 C-1.88208228 51.10472215 -2.65309204 53.04215427 -3.421875 54.98046875 C-3.98346283 56.37666933 -4.54558108 57.77265754 -5.109375 59.16796875 C-5.769375 59.16796875 -6.429375 59.16796875 -7.109375 59.16796875 C-7.295 60.43640625 -7.295 60.43640625 -7.484375 61.73046875 C-8.13707827 65.32033673 -9.06184963 68.6762175 -10.109375 72.16796875 C-10.769375 72.16796875 -11.429375 72.16796875 -12.109375 72.16796875 C-12.59045775 73.58398589 -13.06915641 75.00081312 -13.546875 76.41796875 C-13.81371094 77.206875 -14.08054687 77.99578125 -14.35546875 78.80859375 C-15.02892208 80.91618863 -15.60088095 83.01550848 -16.109375 85.16796875 C-16.769375 85.16796875 -17.429375 85.16796875 -18.109375 85.16796875 C-18.22925781 86.03164063 -18.34914063 86.8953125 -18.47265625 87.78515625 C-20.18623761 96.88921425 -24.56685965 105.33756157 -28.76171875 113.5234375 C-31.06380662 118.0408679 -32.94167573 122.58531412 -34.484375 127.41796875 C-35.97916919 132.0454699 -37.95642532 136.3880576 -40.0234375 140.78515625 C-41.18992984 143.23352167 -41.18992984 143.23352167 -42.109375 146.16796875 C-42.769375 146.16796875 -43.429375 146.16796875 -44.109375 146.16796875 C-44.0475 146.82796875 -43.985625 147.48796875 -43.921875 148.16796875 C-44.17755253 152.25880929 -45.56632544 155.37463859 -47.109375 159.16796875 C-47.769375 159.16796875 -48.429375 159.16796875 -49.109375 159.16796875 C-49.2125 159.80734375 -49.315625 160.44671875 -49.421875 161.10546875 C-50.34872148 165.2341485 -51.73218123 169.17111291 -53.109375 173.16796875 C-53.439375 174.15796875 -53.769375 175.14796875 -54.109375 176.16796875 C-54.769375 176.16796875 -55.429375 176.16796875 -56.109375 176.16796875 C-56.21507812 177.00585938 -56.32078125 177.84375 -56.4296875 178.70703125 C-57.18207244 182.53814077 -58.48108068 185.96193947 -59.984375 189.54296875 C-62.50305162 195.66730117 -62.50305162 195.66730117 -64.859375 201.85546875 C-66.109375 205.16796875 -66.109375 205.16796875 -67.296875 207.29296875 C-68.4379292 209.92617074 -68.15939782 212.32821182 -68.109375 215.16796875 C-55.08233307 216.57297955 -42.11480575 217.33232214 -29.02130127 217.6156311 C19.76242361 218.6742146 19.76242361 218.6742146 29.12890625 227.20703125 C32.39494555 230.84240094 32.16609784 233.80891781 32.10546875 238.53125 C31.78964942 242.40721445 30.41931346 245.6495588 28.890625 249.16796875 C28.07484876 251.35424907 27.26261322 253.54185245 26.453125 255.73046875 C25.11255332 259.23040439 23.80994766 262.54706858 21.828125 265.73046875 C20.0254006 268.92885075 18.98781808 271.74677398 17.890625 275.23046875 C16.4287906 279.82074254 14.71184372 283.23536084 11.890625 287.16796875 C9.29852109 291.88841357 7.03025802 296.68858429 5.140625 301.73046875 C2.96638846 307.39965576 0.03752859 312.64607661 -2.93652344 317.92797852 C-5.51677777 322.62318644 -7.0122479 326.91827456 -8.109375 332.16796875 C-8.769375 332.16796875 -9.429375 332.16796875 -10.109375 332.16796875 C-10.05394531 332.89628906 -9.99851562 333.62460937 -9.94140625 334.375 C-10.13898204 337.66027184 -11.00373767 339.12285392 -12.796875 341.85546875 C-17.56204755 349.43489615 -21.17934391 357.05695653 -24.14453125 365.5 C-26.06532535 370.81134564 -28.32101306 375.9150681 -31.171875 380.79296875 C-32.74584867 383.53472934 -34.05342212 386.21841478 -35.25390625 389.13671875 C-36.75546435 392.70206219 -38.40425983 396.20171887 -40.0234375 399.71484375 C-41.1813238 402.22572756 -41.1813238 402.22572756 -42.109375 405.16796875 C-42.769375 405.16796875 -43.429375 405.16796875 -44.109375 405.16796875 C-44.439375 407.47796875 -44.769375 409.78796875 -45.109375 412.16796875 C-45.769375 412.16796875 -46.429375 412.16796875 -47.109375 412.16796875 C-47.24085938 412.72613281 -47.37234375 413.28429687 -47.5078125 413.859375 C-49.69313763 422.24591495 -53.31688068 429.67396835 -57.5078125 437.2265625 C-59.28218912 440.48535664 -60.69800333 443.74035183 -62.109375 447.16796875 C-65.84596723 455.41246812 -70.40228466 463.01980261 -77.109375 469.16796875 C-77.769375 469.82796875 -78.429375 470.48796875 -79.109375 471.16796875 C-81.63739949 472.431981 -83.33382268 473.26197509 -86.171875 472.91796875 C-88.2281139 472.12200531 -90.16615873 471.20897747 -92.109375 470.16796875 C-92.109375 469.50796875 -92.109375 468.84796875 -92.109375 468.16796875 C-92.769375 468.16796875 -93.429375 468.16796875 -94.109375 468.16796875 C-95.76434856 464.85802162 -95.21021835 461.17673875 -95.171875 457.54296875 C-95.16736328 456.74117187 -95.16285156 455.939375 -95.15820312 455.11328125 C-95.14640668 453.13147869 -95.12847105 451.14971442 -95.109375 449.16796875 C-94.449375 449.16796875 -93.789375 449.16796875 -93.109375 449.16796875 C-93.01849609 448.11996094 -93.01849609 448.11996094 -92.92578125 447.05078125 C-92.84199219 446.14070313 -92.75820312 445.230625 -92.671875 444.29296875 C-92.59066406 443.38804687 -92.50945312 442.483125 -92.42578125 441.55078125 C-92.109375 439.16796875 -92.109375 439.16796875 -91.109375 437.16796875 C-90.449375 437.16796875 -89.789375 437.16796875 -89.109375 437.16796875 C-89.01140625 436.03101563 -88.9134375 434.8940625 -88.8125 433.72265625 C-88.2092614 428.92838587 -86.67177597 424.74948895 -84.859375 420.29296875 C-84.54581055 419.5035791 -84.23224609 418.71418945 -83.90917969 417.90087891 C-81.89206164 412.89311035 -79.67406537 408.04775465 -77.1640625 403.265625 C-75.82335433 400.59910543 -74.80169879 397.87078864 -73.80078125 395.0625 C-72.69816994 392.04122042 -71.39821939 389.11389878 -70.109375 386.16796875 C-69.449375 386.16796875 -68.789375 386.16796875 -68.109375 386.16796875 C-67.8825 384.86859375 -67.655625 383.56921875 -67.421875 382.23046875 C-66.4336888 377.69054085 -64.64949492 374.15172493 -62.23046875 370.2109375 C-61.12011131 368.18753352 -60.56004835 366.42133548 -60.109375 364.16796875 C-59.449375 364.16796875 -58.789375 364.16796875 -58.109375 364.16796875 C-57.92181641 363.33072266 -57.92181641 363.33072266 -57.73046875 362.4765625 C-57.05451927 359.96407104 -56.15527437 357.63886946 -55.171875 355.23046875 C-54.83285156 354.39644531 -54.49382812 353.56242187 -54.14453125 352.703125 C-53.80292969 351.86652344 -53.46132812 351.02992188 -53.109375 350.16796875 C-52.44151319 348.50178064 -51.77449865 346.8352518 -51.109375 345.16796875 C-50.449375 345.16796875 -49.789375 345.16796875 -49.109375 345.16796875 C-49.109375 343.51796875 -49.109375 341.86796875 -49.109375 340.16796875 C-48.449375 340.16796875 -47.789375 340.16796875 -47.109375 340.16796875 C-46.97789062 339.59820313 -46.84640625 339.0284375 -46.7109375 338.44140625 C-44.92570006 331.69459982 -41.79381473 325.47050848 -38.609375 319.29296875 C-35.44129599 313.07944605 -33.079884 306.85056451 -31.109375 300.16796875 C-30.449375 300.16796875 -29.789375 300.16796875 -29.109375 300.16796875 C-28.8825 299.26046875 -28.655625 298.35296875 -28.421875 297.41796875 C-26.35156973 290.23615115 -23.13830709 283.43760403 -20.07421875 276.63671875 C-19.71924316 275.84692627 -19.36426758 275.05713379 -18.99853516 274.2434082 C-18.29593533 272.68510233 -17.58878147 271.12883944 -16.87646484 269.57495117 C-14.88128026 265.15927466 -13.31854815 260.86204095 -12.109375 256.16796875 C-11.449375 256.16796875 -10.789375 256.16796875 -10.109375 256.16796875 C-10.109375 255.17796875 -10.109375 254.18796875 -10.109375 253.16796875 C-11.69218765 253.15916939 -11.69218765 253.15916939 -13.30697632 253.15019226 C-23.28155447 253.09282477 -33.25591754 253.01999039 -43.23027611 252.93225384 C-48.35744002 252.8876448 -53.48452621 252.848368 -58.61181641 252.8215332 C-63.56569017 252.79540556 -68.51926328 252.75493682 -73.47294998 252.70478249 C-75.35700345 252.68817754 -77.24110885 252.67662378 -79.12522507 252.67035484 C-98.0856104 252.6009214 -98.0856104 252.6009214 -106.109375 249.16796875 C-106.109375 248.50796875 -106.109375 247.84796875 -106.109375 247.16796875 C-107.099375 247.16796875 -108.089375 247.16796875 -109.109375 247.16796875 C-113.83646708 242.15438624 -115.38934616 237.74402153 -115.296875 230.91796875 C-115.28720703 229.33242188 -115.28720703 229.33242188 -115.27734375 227.71484375 C-115.109375 225.16796875 -115.109375 225.16796875 -114.109375 224.16796875 C-113.84125 222.88921875 -113.573125 221.61046875 -113.296875 220.29296875 C-111.62263033 212.459003 -108.68056483 205.31034841 -105.109375 198.16796875 C-104.41030086 195.4322429 -104.41030086 195.4322429 -104.109375 193.16796875 C-103.449375 193.16796875 -102.789375 193.16796875 -102.109375 193.16796875 C-102.00109375 192.51054688 -101.8928125 191.853125 -101.78125 191.17578125 C-100.92647162 187.34915712 -99.67218657 183.73366454 -98.359375 180.04296875 C-98.09205566 179.2852417 -97.82473633 178.52751465 -97.54931641 177.74682617 C-96.04511608 173.55336562 -94.41374427 169.5009867 -92.484375 165.48046875 C-89.53180444 159.2886703 -87.83798331 152.78303408 -86.109375 146.16796875 C-85.449375 146.16796875 -84.789375 146.16796875 -84.109375 146.16796875 C-83.99722656 145.50410156 -83.88507813 144.84023438 -83.76953125 144.15625 C-82.95379728 140.4637264 -81.76756852 136.92864727 -80.546875 133.35546875 C-80.19592773 132.31616211 -80.19592773 132.31616211 -79.83789062 131.25585938 C-79.26445824 129.55896761 -78.68729331 127.86333797 -78.109375 126.16796875 C-77.449375 126.16796875 -76.789375 126.16796875 -76.109375 126.16796875 C-75.779375 123.19796875 -75.449375 120.22796875 -75.109375 117.16796875 C-74.449375 117.16796875 -73.789375 117.16796875 -73.109375 117.16796875 C-72.92375 116.11609375 -72.92375 116.11609375 -72.734375 115.04296875 C-71.27884531 108.34753216 -68.61069972 101.89694778 -66.3203125 95.4453125 C-64.87532687 91.36578236 -63.46244515 87.27922037 -62.109375 83.16796875 C-61.449375 83.16796875 -60.789375 83.16796875 -60.109375 83.16796875 C-60.00238281 82.50023437 -59.89539063 81.8325 -59.78515625 81.14453125 C-58.95205318 77.47502523 -57.6501457 74.04383931 -56.296875 70.54296875 C-55.75082771 69.11085787 -55.20525612 67.67856551 -54.66015625 66.24609375 C-54.39412598 65.54935547 -54.1280957 64.85261719 -53.85400391 64.13476562 C-52.86828622 61.53117818 -51.92401972 58.91349188 -50.984375 56.29296875 C-48.28263768 48.8352806 -45.31450133 41.51764661 -42.05859375 34.28515625 C-40.70334492 31.26233788 -39.40646571 28.21613193 -38.109375 25.16796875 C-37.449375 25.16796875 -36.789375 25.16796875 -36.109375 25.16796875 C-36.00625 24.63171875 -35.903125 24.09546875 -35.796875 23.54296875 C-32.81117149 13.22872027 -25.8870027 6.23857008 -17.359375 0.23046875 C-11.87781539 -1.56157958 -5.46871366 -2.15710372 0 0 Z " fill="#010101" transform="translate(276.109375,467.83203125)"/>
<path d="M0 0 C1.50844482 -0.02646606 1.50844482 -0.02646606 3.04736328 -0.0534668 C4.02044434 -0.05258057 4.99352539 -0.05169434 5.99609375 -0.05078125 C7.28084595 -0.05525269 7.28084595 -0.05525269 8.59155273 -0.05981445 C11.37246626 0.28868527 13.60843825 0.93222129 16.2481842 1.83576965 C17.05668855 2.1108476 17.86519289 2.38592554 18.69819736 2.66933918 C19.62102717 2.98770379 19.62102717 2.98770379 20.5625 3.3125 C20.58542312 35.98361582 20.60306621 68.65472929 20.61356533 101.32585134 C20.6148157 105.2025858 20.61611006 109.07932025 20.61743164 112.95605469 C20.61769395 113.72768659 20.61795626 114.49931849 20.61822652 115.29433317 C20.62255138 127.7097301 20.63042099 140.12512229 20.6396528 152.54051642 C20.64907865 165.32564061 20.65457429 178.11076236 20.65658849 190.89588988 C20.65782512 198.05777848 20.66078439 205.21965715 20.66823006 212.38154221 C20.68437766 228.65275912 20.67250451 244.92347047 20.57952356 261.19448757 C20.56326346 264.17266574 20.55155723 267.15083602 20.54014206 270.12903595 C20.52058987 274.30381972 20.47490442 278.47733565 20.40228927 282.6515286 C20.38043093 284.0830027 20.36657125 285.51462674 20.36164868 286.94625926 C20.35324264 288.83385848 20.31080574 290.72121847 20.26609802 292.60830688 C20.24346468 294.13672683 20.24346468 294.13672683 20.22037411 295.69602394 C19.31359659 299.30243076 17.63115077 300.32957481 14.5625 302.3125 C12.04195583 303.29673904 9.64816199 304.12975752 7.0625 304.875 C6.36125 305.08624512 5.66 305.29749023 4.9375 305.51513672 C-0.52446668 307.12923693 -6.0384701 308.41983017 -11.60546875 309.62109375 C-14.12155555 310.23536598 -16.36603968 311.00475443 -18.75 312 C-21.93464089 313.13351625 -23.44946098 313.46457132 -26.66796875 313.39453125 C-27.91191406 313.36746094 -29.15585937 313.34039063 -30.4375 313.3125 C-30.46062737 305.24597826 -30.47841709 297.17947028 -30.48931217 289.11292362 C-30.49454014 285.36766963 -30.50163622 281.62243824 -30.51293945 277.87719727 C-30.52377141 274.26568313 -30.52977749 270.65419079 -30.53237724 267.04266167 C-30.53423094 265.66189671 -30.53785049 264.281133 -30.54323006 262.90037727 C-30.55044447 260.97274048 -30.55090809 259.04508193 -30.55102539 257.11743164 C-30.553246 256.01822891 -30.55546661 254.91902618 -30.55775452 253.78651428 C-30.4375 251.3125 -30.4375 251.3125 -29.4375 250.3125 C-29.27646415 247.62864161 -29.18000683 244.96853782 -29.12548828 242.28173828 C-29.10499798 241.43846859 -29.08450768 240.5951989 -29.06339645 239.72637558 C-28.99725824 236.90361988 -28.93946029 234.08077379 -28.8828125 231.2578125 C-28.86187656 230.27885136 -28.84094063 229.29989021 -28.81937027 228.29126358 C-28.34680644 205.97767825 -28.27962297 183.66688487 -28.30872726 161.34909821 C-28.31256491 158.13310202 -28.31458663 154.91710886 -28.31619263 151.70111084 C-28.33301326 123.07771248 -28.46736633 94.45690735 -28.84366608 65.83585358 C-28.87484349 63.44947935 -28.90462627 61.06309055 -28.93426514 58.67669678 C-28.98091803 54.98467925 -29.0331393 51.29278328 -29.09031487 47.600914 C-29.1200201 45.64114524 -29.14596467 43.68132059 -29.17176819 41.72149658 C-29.19170334 40.55930603 -29.21163849 39.39711548 -29.23217773 38.19970703 C-29.24772202 37.20004913 -29.2632663 36.20039124 -29.27928162 35.17044067 C-29.44607036 32.15769135 -29.90987339 29.2811906 -30.4375 26.3125 C-30.63950118 22.75082872 -30.62254851 19.19192049 -30.625 15.625 C-30.63724609 14.67560547 -30.64949219 13.72621094 -30.66210938 12.74804688 C-30.66404297 11.83732422 -30.66597656 10.92660156 -30.66796875 9.98828125 C-30.67207764 9.16239502 -30.67618652 8.33650879 -30.68041992 7.4855957 C-30.4375 5.3125 -30.4375 5.3125 -28.4375 2.3125 C-19.2908884 -0.03053612 -9.38418691 0.09460739 0 0 Z " fill="#F5F5F5" transform="translate(553.4375,537.6875)"/>
<path d="M0 0 C5.09006402 7.15360348 4.39374219 14.60016656 4 23 C6.56364399 22.37942343 9.12584926 21.75370801 11.6875 21.125 C12.40873047 20.95097656 13.12996094 20.77695312 13.87304688 20.59765625 C17.72704563 19.64735519 21.33621665 18.55354771 25 17 C30.7858859 15.23481447 36.98852875 13.52226376 43 15 C47.70558478 18.82449791 49.89369447 24.13658068 51 30 C51.125 32.9375 51.125 32.9375 51 35 C50.34 35 49.68 35 49 35 C49 36.32 49 37.64 49 39 C43.37093446 45.64943996 33.8365213 47.95784185 25.94580078 50.71875 C24.52004216 51.22092043 23.09604926 51.72813105 21.67382812 52.24023438 C20.30564712 52.73257703 18.93338831 53.21378771 17.55664062 53.68164062 C13.0986814 55.28506061 8.70446397 56.97152795 6 61 C4.8432664 65.03730456 4.55382007 69.07225804 4.25 73.25 C4.13986572 74.50321045 4.02973145 75.7564209 3.91625977 77.04760742 C3.57912953 81.03037395 3.28606741 85.01327401 3 89 C2.9076709 90.16418457 2.8153418 91.32836914 2.72021484 92.52783203 C0.91577797 115.46531337 0.40045356 138.48183123 -0.2440052 161.47507286 C-0.30208367 163.53779842 -0.36163789 165.60047629 -0.42163086 167.66314697 C-0.49537922 170.21908266 -0.56595402 172.7751126 -0.6328125 175.33123779 C-0.7841861 180.53683808 -1.04447259 185.58985191 -1.77586365 190.75053406 C-2.28254051 195.83561884 -2.211337 200.9671559 -2.26036072 206.07418442 C-2.28170455 208.28936294 -2.30870561 210.50441338 -2.33703613 212.71951294 C-2.39635557 217.43795649 -2.44852683 222.15646531 -2.5 226.875 C-3.15999694 286.88216869 -3.15999694 286.88216869 -8 298 C-8.66 298 -9.32 298 -10 298 C-10.28875 298.804375 -10.5775 299.60875 -10.875 300.4375 C-12 303 -12 303 -14 304 C-18.81748326 304.40697796 -23.8081915 304.6675145 -28 302 C-29.3125 299.375 -29.3125 299.375 -30 297 C-30.66 297 -31.32 297 -32 297 C-33.99050635 290.35995315 -34.29916145 284.27124834 -34.30297852 277.36303711 C-34.31563751 275.64573395 -34.31563751 275.64573395 -34.32855225 273.89373779 C-34.35433438 270.10493524 -34.36650015 266.31621171 -34.37890625 262.52734375 C-34.39512388 259.84883029 -34.41218071 257.17033571 -34.43040466 254.49183655 C-34.47205226 248.13074793 -34.5044083 241.76965069 -34.53287882 235.40849072 C-34.58936398 222.84073217 -34.66356301 210.27306437 -34.7412951 197.70542121 C-34.75390797 195.65206336 -34.7661588 193.59870357 -34.77838707 191.5453434 C-34.8875156 173.49873191 -35.09542711 155.45687374 -35.4921875 137.4140625 C-35.5129793 136.46601683 -35.5337711 135.51797115 -35.55519295 134.54119682 C-35.84852292 121.45145834 -36.27786124 108.37118634 -36.8125 95.2890625 C-37.06065337 88.85775444 -37.10706434 82.43575653 -37 76 C-39.04250911 76.45456434 -41.0839726 76.91382826 -43.125 77.375 C-44.26195312 77.63023437 -45.39890625 77.88546875 -46.5703125 78.1484375 C-50.72677124 79.18045117 -54.6888781 80.43809061 -58.625 82.125 C-64.49336907 83.64642902 -71.21255649 83.92914784 -77 82 C-77 81.34 -77 80.68 -77 80 C-77.99 80 -78.98 80 -80 80 C-80 79.01 -80 78.02 -80 77 C-80.66 77 -81.32 77 -82 77 C-82.67321284 74.75194998 -83.33834123 72.50147776 -84 70.25 C-84.37125 68.99703125 -84.7425 67.7440625 -85.125 66.453125 C-86.44576987 61.24080105 -85.77281108 57.51107091 -84.3125 52.4375 C-83.99925781 51.30183594 -83.68601562 50.16617188 -83.36328125 48.99609375 C-81.40666962 44.69603324 -78.84213311 43.80408579 -74.67211914 41.98388672 C-71.94391667 40.97934986 -69.44995157 40.46502683 -66.578125 40.03515625 C-65.55203125 39.87466797 -64.5259375 39.71417969 -63.46875 39.54882812 C-61.33876942 39.2270046 -59.20856341 38.90666928 -57.078125 38.58789062 C-56.046875 38.42611328 -55.015625 38.26433594 -53.953125 38.09765625 C-53.02661133 37.95851807 -52.10009766 37.81937988 -51.14550781 37.67602539 C-47.01006283 36.78724495 -43.01281102 35.33760367 -39 34 C-37.515 21.13 -37.515 21.13 -36 8 C-35.34 8 -34.68 8 -34 8 C-33.9071875 7.1646875 -33.9071875 7.1646875 -33.8125 6.3125 C-32.59947974 2.86005771 -30.83615704 1.29306314 -28 -1 C-19.93460632 -4.13654199 -7.11503269 -5.47603409 0 0 Z " fill="#010101" transform="translate(893,536)"/>
<path d="M0 0 C3.62179633 3.64688961 5.27602195 7.36571477 5.3125 12.5 C5.209375 13.655 5.10625 14.81 5 16 C5.66 16 6.32 16 7 16 C7.02697137 18.60423592 7.04682489 21.20819244 7.0625 23.8125 C7.07087891 24.55048828 7.07925781 25.28847656 7.08789062 26.04882812 C7.10259828 29.29922068 7.03531702 31.89404895 6 35 C4.98248283 43.10135108 4.85532459 51.21991359 4.87060547 59.37329102 C4.86885315 60.54777298 4.86710083 61.72225494 4.86529541 62.93232727 C4.86092073 66.78953564 4.86380384 70.64669746 4.8671875 74.50390625 C4.86696367 77.22785986 4.86554097 79.95181269 4.86428833 82.67576599 C4.86247382 88.38907358 4.86484806 94.10236821 4.86962891 99.81567383 C4.87441962 105.60572152 4.87448923 111.3957434 4.86962891 117.18579102 C4.775536 155.54828891 4.775536 155.54828891 5.4453125 193.90234375 C5.47443537 194.93104678 5.47443537 194.93104678 5.50414658 195.98053169 C5.70162315 202.64947877 6.05526595 209.25472337 6.78131104 215.88719177 C7.28627708 220.76579371 7.26814434 225.66267862 7.3125 230.5625 C7.34150391 231.63435547 7.37050781 232.70621094 7.40039062 233.81054688 C7.45970842 241.27090092 6.61622182 247.88577517 1.52856445 253.67407227 C-0.45579196 255.39536914 -2.55144334 256.09790018 -5 257 C-5.33 257.33 -5.66 257.66 -6 258 C-22.23755045 259.33878508 -22.23755045 259.33878508 -28.51953125 254.4296875 C-32.76089638 250.33380455 -34.83323931 247.34725696 -35.12698364 241.45115662 C-35.12817703 240.01244957 -35.12817703 240.01244957 -35.12939453 238.54467773 C-35.13254669 237.45352158 -35.13569885 236.36236542 -35.13894653 235.23814392 C-35.1369223 234.06514236 -35.13489807 232.89214081 -35.1328125 231.68359375 C-35.13376923 230.47558609 -35.13472595 229.26757843 -35.13571167 228.02296448 C-35.13639201 225.47014311 -35.13454788 222.91732 -35.13037109 220.36450195 C-35.1250162 216.44934217 -35.13032345 212.53429686 -35.13671875 208.61914062 C-35.13605803 206.14062475 -35.13477701 203.66210894 -35.1328125 201.18359375 C-35.13483673 200.00856796 -35.13686096 198.83354218 -35.13894653 197.62290955 C-35.13579437 196.53490555 -35.13264221 195.44690155 -35.12939453 194.32592773 C-35.12859894 193.3675853 -35.12780334 192.40924286 -35.12698364 191.42185974 C-35 189 -35 189 -34 186 C-33.89119697 184.5397949 -33.83414244 183.07539106 -33.81054688 181.61132812 C-33.79382935 180.72610474 -33.77711182 179.84088135 -33.7598877 178.92883301 C-33.74631226 177.97263062 -33.73273682 177.01642822 -33.71875 176.03125 C-33.70034058 175.04056519 -33.68193115 174.04988037 -33.66296387 173.0291748 C-33.60419145 169.85284394 -33.55146592 166.67645711 -33.5 163.5 C-33.4483082 160.35211446 -33.39512953 157.20429284 -33.33703613 154.05651855 C-33.30093308 152.09865843 -33.26838924 150.14072806 -33.2401123 148.18273926 C-33.13870639 142.66014865 -32.77498083 137.22190072 -32.23733521 131.72555542 C-31.84634489 127.23542608 -31.73101784 122.74236406 -31.60546875 118.23828125 C-31.53920074 116.1512606 -31.47210758 114.06426602 -31.40429688 111.97729492 C-31.36941162 110.89096771 -31.33452637 109.8046405 -31.29858398 108.68539429 C-30.66044528 89.30929425 -29.64608621 70.00500241 -28 50.6875 C-27.91632172 49.69464996 -27.83264343 48.70179993 -27.74642944 47.67886353 C-24.38552594 8.23190742 -24.38552594 8.23190742 -19 1.5 C-12.41469727 -3.43897705 -7.29616258 -4.06368549 0 0 Z " fill="#010101" transform="translate(977,619)"/>
<path d="M0 0 C3.29937793 -0.04776797 5.74950795 0.05506116 8.8125 1.3125 C9.49957031 1.58578125 10.18664062 1.8590625 10.89453125 2.140625 C11.58933594 2.42421875 12.28414062 2.7078125 13 3 C17.50357698 4.78394117 21.86974835 6.23119862 26.59765625 7.3359375 C30.998374 8.55239606 35.25412072 10.20174533 39.53515625 11.78125 C43.00169915 13.00059767 46.45861973 14.02555651 50 15 C50 15.66 50 16.32 50 17 C51.65 17 53.3 17 55 17 C55.75 18.6875 55.75 18.6875 56 21 C53.33308571 24.9399044 50.49698423 27.20587879 46.4375 29.625 C43.22320255 31.5527062 40.62841286 33.35698485 38 36 C36.09765625 37.0625 36.09765625 37.0625 34.0625 38 C31.0933001 39.41934281 28.6033495 40.97517261 26 43 C24.515 43.495 24.515 43.495 23 44 C22.01 45.0209375 22.01 45.0209375 21 46.0625 C19 48 19 48 16 48 C16 48.66 16 49.32 16 50 C9.25 54 9.25 54 7 54 C7 54.66 7 55.32 7 56 C4.36 56 1.72 56 -1 56 C-1.15526952 37.30554983 -0.73226161 18.67656602 0 0 Z " fill="#F2F2F2" transform="translate(861,198)"/>
<path d="M0 0 C1.03253906 0.01353516 1.03253906 0.01353516 2.0859375 0.02734375 C3.76577838 0.05067487 5.44543746 0.08653674 7.125 0.125 C7.125 0.785 7.125 1.445 7.125 2.125 C7.7025 2.33125 8.28 2.5375 8.875 2.75 C12.79350794 5.14464374 14.70083774 8.85251322 16.125 13.125 C16.2740798 15.88871005 16.35609829 18.6106242 16.375 21.375 C16.395625 22.11363281 16.41625 22.85226562 16.4375 23.61328125 C16.47468634 28.88444477 15.46723983 32.40466974 13.125 37.125 C12.8775 37.82625 12.63 38.5275 12.375 39.25 C9.77613985 43.14829022 6.25313073 45.62366151 1.6875 46.69921875 C-4.53624385 47.42974966 -10.51027297 47.70148469 -15.875 44.125 C-15.875 43.465 -15.875 42.805 -15.875 42.125 C-16.535 42.125 -17.195 42.125 -17.875 42.125 C-17.875 41.465 -17.875 40.805 -17.875 40.125 C-18.535 40.125 -19.195 40.125 -19.875 40.125 C-19.875 38.805 -19.875 37.485 -19.875 36.125 C-20.865 35.795 -21.855 35.465 -22.875 35.125 C-26.49295411 28.85685729 -26.72545432 21.13391667 -25.875 14.125 C-24.31729099 8.74649532 -20.71576495 5.92326747 -16.0703125 3.16796875 C-10.65585339 0.59561896 -5.95542516 -0.15003978 0 0 Z " fill="#030303" transform="translate(972.875,556.875)"/>
<path d="M0 0 C0.66 0.33 1.32 0.66 2 1 C5.26457474 11.20179607 6.85588446 22.42145856 5 33 C3.56445975 33.50559908 2.1264798 34.0042749 0.6875 34.5 C-0.11300781 34.7784375 -0.91351562 35.056875 -1.73828125 35.34375 C-4 36 -4 36 -7 36 C-6.88562349 33.27001324 -6.75888594 30.5415418 -6.625 27.8125 C-6.5940625 27.04357422 -6.563125 26.27464844 -6.53125 25.48242188 C-6.31015321 21.18945929 -5.71033699 17.98177267 -4 14 C-3.68687634 11.16999629 -3.56217901 8.36744127 -3.44140625 5.5234375 C-2.94248696 2.67120866 -2.22944421 1.771665 0 0 Z " fill="#EAEAEA" transform="translate(1032,256)"/>
<path d="M0 0 C0.66 0 1.32 0 2 0 C4.35785057 11.01813189 5.59591214 21.7412761 6 33 C-1.92682927 35.35939742 -1.92682927 35.35939742 -6 35 C-6.33 34.67 -6.66 34.34 -7 34 C-6.94407685 27.58281897 -6.54612845 13.54612845 -2 9 C-1.79395915 7.67218122 -1.6337041 6.33704105 -1.5 5 C-1.11111111 1.11111111 -1.11111111 1.11111111 0 0 Z " fill="#ECECEC" transform="translate(550,254)"/>
<path d="M0 0 C0.66 0.33 1.32 0.66 2 1 C0.90653119 2.34212062 -0.2001575 3.67347975 -1.3125 5 C-2.23482422 6.11375 -2.23482422 6.11375 -3.17578125 7.25 C-5 9 -5 9 -8 9 C-6.90101298 5.70303895 -6.05402613 4.95329411 -3.4375 2.8125 C-2.79683594 2.28269531 -2.15617187 1.75289062 -1.49609375 1.20703125 C-0.75552734 0.60955078 -0.75552734 0.60955078 0 0 Z " fill="#C5C5C5" transform="translate(1323,848)"/>
</svg>
